<?xml version="1.0" encoding="utf-8"?>
<!-- Generator: Adobe Illustrator 16.0.0, SVG Export Plug-In . SVG Version: 6.00 Build 0)  -->
<!DOCTYPE svg PUBLIC "-//W3C//DTD SVG 1.1//EN" "http://www.w3.org/Graphics/SVG/1.1/DTD/svg11.dtd">
<svg version="1.1" id="Ebene_1" xmlns="http://www.w3.org/2000/svg" xmlns:xlink="http://www.w3.org/1999/xlink" x="0px" y="0px"
	 width="286.333px" height="136.667px" viewBox="21.5 -3.5 286.333 136.667" enable-background="new 21.5 -3.5 286.333 136.667"
	 xml:space="preserve">
<path fill="#005BD7" d="M307.764,117.699c0,8.836-7.163,16-16,16H37.431c-8.836,0-16-7.164-16-16V13.032c0-8.837,7.164-16,16-16
	h254.333c8.837,0,16,7.163,16,16V117.699z"/>
<g>
	<path fill="#7F0606" d="M95.529,107.508c-0.219,0.267-0.471,0.533-0.69,0.815c-2.812,0.425-5.63,0.841-8.449,1.265
		c-4.114-5.176-9.313-6.416-15.471-4.318c-0.785,0.268-1.649,0.234-2.403-0.048c-2.513-0.941-4.814-0.394-7.033,0.856
		c-3.875,2.19-8.092,1.829-12.282,1.68c-2.403-0.723-4.582-1.68-5.081-4.53c1.457-1.201,3.216-0.729,4.728-0.511
		c2.871,0.393,4.688-0.771,6.122-3.031c0.499-0.793,1.084-1.531,1.681-2.246c1.633-1.963,3.652-2.536,5.949-1.382
		c4.449,2.262,8.902,3.927,14.116,3.086c2.349-0.386,4.72,1.114,7.226,1.076c1.248-0.017,2.059,1.178,2.42,2.309
		c1.074,3.322,3.611,3.966,6.644,3.896C93.977,106.485,94.895,106.674,95.529,107.508z"/>
	<path fill="#6D0806" d="M49.091,106.832c5.049,0.25,9.985-0.047,14.411-2.945c0.546-0.354,1.48-0.737,1.951-0.51
		c4.523,2.088,8.969-0.361,13.445-0.11c2.896,0.173,6.754,3.299,7.491,6.321c-2.058,0.668-4.021,1.648-6.268,1.5
		c-0.88,0.33-1.868,0.723-2.341-0.447c-0.399-0.967,0.455-1.43,1.179-1.807c1.916-1.006,0.841-1.783-0.228-2.41
		c-1.422-0.85-2.922-0.361-4.391-0.047c-1.461,0.313-2.089,0.644-1.924,2.653c0.148,1.925-2.16,0.724-3.385,0.888
		c-0.936-0.133-1.85-0.377-2.809-0.148c-1.006,0.204-2.011,0.251-3.016,0.393c-1.759,0.645-3.593,0.424-5.403,0.486
		c-1.111,0.079-2.155-0.22-3.184-0.581c-1.779-0.267-3.306-1.153-4.889-1.894C49.283,107.836,48.953,107.443,49.091,106.832z"/>
	<path fill="#621207" d="M68.877,108.896c1.005,0.134,1.994,0.268,3.016,0.4c0.157-1.438-1.398-1.209-1.695-2.199
		c0.195-0.172,0.408-0.439,0.675-0.573c4.854-2.426,7.681-2.442,9.896-0.069c0.612,0.659,1.523,1.24,1.178,2.34
		c-0.313,1.021-1.318,0.707-2.08,0.841c-0.573,0.118-1.609-0.181-1.28,0.942c0.095,0.289,1.006,0.338,1.539,0.51
		c-0.722,0.439-1.46,0.871-2.183,1.32c-1.154,0-2.31,0-3.463,0c-1.392-0.724-3.033-0.188-4.423-0.904
		C69.223,110.836,68.296,110.209,68.877,108.896z"/>
	<path fill="#AC0406" d="M106.761,92.037c-1.006,0.988-1.696,2.174-2.151,3.518c-2.576,2.623-2.938,6.644-5.756,9.142
		c-3.275,0.165-2.884-2.388-2.867-4.249c0.031-2.678,1.209-5.189,1.681-7.828c0.11-0.565,0.33-1.123,0.487-1.682
		c1.854-7.139,0.354-9.564-6.849-11.042c-1.139-0.235-2.325-0.329-3.149-1.319c-1.106-3.533,0.425-7.052,0.135-10.586
		c0.51-1.504,1.633-2.193,2.984-1.382c7.303,4.421,13.773,9.659,16.506,18.228c0.3,1.453,0.856,2.852,0.677,4.375
		C108.316,90.402,107.828,91.393,106.761,92.037z"/>
	<path fill="#990405" d="M88.51,78.687c2.813-0.079,5.693-0.126,8.104,1.522c3.998,2.717,4.578,5.78,2.687,11.34
		c-0.88,2.623-1.751,5.293-2.229,8.02c-0.313,1.846-0.676,4.075,1.807,5.112c-0.637,1.516-1.9,2.262-3.338,2.827
		c-0.936,0-1.861-0.008-2.805-0.008c-0.941-0.685-2.041-1.076-3.108-1.533c-3.597-1.508-3.793-2.434-1.162-5.434
		c3.519-3.66,4.209-8.355,4.774-13.084c0.172-1.57-0.746-2.064-2.185-1.728c-0.901,0.22-1.608,0.896-2.513,1.146
		c-0.534,0.11-1.028,0.031-1.477-0.281c-0.871-1.76,0.086-3.408,0.282-5.098c0.235-0.841,0.196-1.752,0.763-2.48
		C88.234,78.905,88.367,78.787,88.51,78.687z"/>
	<path fill="#F46943" d="M82.918,28.947c0.691-0.106,1.398-0.22,2.089-0.322l-0.017,0.248c-0.125,1.319,0.488,1.755,1.729,1.433
		c1.288,1.535,4.092,0.997,4.712,3.447c0.04,0.856-3.077-0.07-1.083,2.062c0.598,0.644-0.078,2.002-0.871,2.796
		c-0.824,0.35-1.266-0.031-1.517-0.777c-0.386,1.728,1.413,4.229-1.759,5.002c-1.604-2.541-1.227-5.517-1.713-8.431
		c-2.137,0.114-4.728,2.454-6.047-1.139c0.951-1.08-0.941-1.457-0.621-2.399C79.086,29.093,81.63,30.7,82.918,28.947z"/>
	<path fill="#F29868" d="M74.438,30.123c1.414-0.573,2.826-1.143,4.24-1.712c1.413,0.177,2.827,0.353,4.225,0.538
		c0.526,0.915,0.801,1.783-0.715,1.889c-1.357,0.098-2.731,0.098-4.099,0.138C76.589,31.924,75.206,32.316,74.438,30.123z"/>
	<path fill="#93BC78" d="M49.868,7.548c0.667,0.055,1.343,0.114,2.019,0.168c3.451,1.811,7.778,1.704,10.586,4.896
		c-0.675,2.156-2.223,0.727-3.396,0.836c-6.448-2.611-13.123-4.182-20.136-4.029c-1.166,0.024-2.372,0.13-3.271-0.86
		c-0.797-0.77-3.169,1.143-2.792-1.641c2.604-0.169,5.195,0.491,7.802,0.067C43.767,6.833,46.758,8.118,49.868,7.548z"/>
	<path fill="#7FAC43" d="M59.704,12.559c0.935-0.283,1.818,1.158,2.769,0.063c0.506,0.204,1.005,0.413,1.504,0.613
		c2.21,0.153,3.486,1.052,2.796,3.522c0.219,0.491,0.442,0.974,0.658,1.457c-0.207,1.397,0.299,3.192-1.881,3.545
		c-0.563,0.055-1.095-0.047-1.582-0.322c-1.54-1.457-1.626-3.73-3.008-5.277C60.125,15.106,58.931,14.168,59.704,12.559z"/>
	<path fill="#B3D18C" d="M40.68,6.995c-2.607,1.021-5.214,1.197-7.802-0.075c0.016-0.216,0.079-0.417,0.2-0.601
		c1.826,0,3.652-0.008,5.478-0.016C39.117,6.986,39.93,6.889,40.68,6.995z"/>
	<path fill="#4E5B08" d="M59.704,12.559c0.546,1.111,1.045,2.242,2.148,2.953c0.491,0.907,0.114,1.421-0.781,1.688
		c-5.305-2.639-10.928-4.264-16.759-5.277c-1.268-0.216-2.493-0.483-3.77-0.275c-1.358,0.098-2.693-0.157-4.056-0.165
		c-0.816-0.066-1.566-0.298-2.104-0.966c-1.044-0.33-1.881-0.691-0.2-1.402c0.491-0.2,0.997-0.369,1.488-0.554
		C43.99,8,52.091,8.843,59.704,12.559z"/>
	<path fill="#8C0307" d="M87.128,86.43c0.472,0,0.91-0.008,1.382-0.008c3.188,2.002,4.357,5.692,2.813,9.636
		c-0.676,1.712-1.241,3.479-2.104,5.12c-2.71,1.885-2.341,3.188,0.785,3.896c1.366,0.313,2.262,1.123,2.731,2.427
		c-3.549-0.023-6.393-1.106-7.443-4.939c-0.174-0.645-0.645-1.729-1.227-1.508c-3.188,1.162-5.89-1.664-9.156-0.754
		c-4.469,1.248-8.473-0.959-12.203-3.047c-2.709-1.508-4.229-0.942-5.725,1.492c-1.013,1.68-2.101,3.463-3.589,4.664
		c-2.003,1.649-4.512-0.228-6.801,0.282c-0.726,0.165-1.578-0.251-2.372-0.407c-1.209,0.252-1.578-0.433-1.649-1.462
		c3.836-6.896,7.622-13.806,13.115-19.601c2.541-2.688,4.06-2.852,6.644-0.157c2.317,2.419,4.206,4.994,4.151,8.575
		c-0.021,1.453,0.737,2.67,1.738,3.738c2.073,2.215,4.383,2.592,5.254-1.021c0.825-3.408,3.903-3.802,6.213-1.068
		c0.69,0.816,1.106,1.799,1.586,2.732c0.463,0.888,0.582,2.311,1.83,2.325c1.334,0.03,1.813-1.257,2.237-2.356
		c0.063-0.313,0.173-0.628,0.282-0.927c0.598-1.569,1.603-3.063,1.193-4.886C86.719,88.252,86.248,87.262,87.128,86.43z"/>
	<path fill="#BC0407" d="M106.809,85.039c-2.059-6.494-6.604-10.972-11.97-14.756c-1.028-0.738-2.198-1.193-3.03-2.271
		c-0.582-0.75-1.477-1.673-2.615-0.554c-1.893-0.307-1.713-1.877-1.76-3.153c-0.07-1.939,0.346-3.836,0.967-5.67
		c2.606-3.754,3.268-4.021,6.611-2.702c1.068,1.261,0.786,2.808,0.842,4.261c0.047,1.158-0.072,2.356,1.452,2.709
		c1.413,0.413,2.567,1.265,3.188,2.537c2.718,5.603,5.875,10.981,8.293,16.746C108.504,83.391,108.613,84.875,106.809,85.039z"/>
	<path fill="#CE2A14" d="M106.809,85.039c0.471-0.951,0.926-1.894,1.396-2.836c0.104-2.937-2.184-4.75-3.361-7.066
		c-2.184-4.272-3.229-8.717-2.654-13.507c0.018-1.712-0.328-3.459,0.457-5.108c0.558-1.021,1.53-1.52,2.543-1.959
		c1.539,0.016,1.76,1.229,1.478,2.195c-1.106,3.746,0.974,6.432,2.812,9.463c0.031,0.259,0.33-0.516-0.063-0.264
		c-0.564-1.071-0.816-2.002,0.91-2.039c0,5.66,0,11.33,0,16.983c-0.896,2.827-1.821,5.654-2.717,8.466
		C107.357,87.938,107.09,86.483,106.809,85.039z"/>
	<path fill="#D62912" d="M89.264,58.299c0.33,3.055-1.916,6.094-0.07,9.16c0.313,3.767-0.433,7.488-0.684,11.228l-0.039-0.047
		c-1.587,0.251-2.176-0.864-2.246-2.042c-0.307-5.059-2.615-9.967-1.279-15.168c0.393-1.217,0.36-2.552,0.988-3.699
		c2.568-1.861,1.25-4.586,1.531-6.958c0.079-3.354,0.04-6.723,2.396-9.499c0.438-0.11,0.815,0,1.131,0.338
		C92.986,47.441,90.96,52.846,89.264,58.299z"/>
	<path fill="#B30407" d="M87.128,86.43c0.22,0.927,0.446,1.854,0.667,2.796c-0.26,0.274-0.581,0.485-0.941,0.604
		c-3.369-0.096-3.439-2.931-4.281-5.129c-0.532-5.418-4.389-8.435-9.438-6.927c-5.024,1.509-9.325,1.461-12.679-3.282
		c-0.781-1.106-2.375-1.406-3.651-1.947c-1.543-0.69-2.399-2.137-3.491-3.299c-3.023-3.234-4.096-3.381-7.704-1.021
		c-0.675,0.448-1.312,0.958-2.01,1.366c-2.902,1.287-4.889,3.855-7.673,5.355c-1.457,0.785-1.037,2.733-1.657,4.084
		c-0.456,0.997-1.135,1.916-2.281,1.869c-1.28-0.048-1.708-1.021-1.563-2.23c0.981-3.77,1.916-7.578,5.525-9.879
		c2.67-2.258,5.407-4.421,8.485-6.133c5.132-2.854,8.78-2.823,13.004,1.312c2.902,2.839,6.593,2.661,9.848,4.021
		c0.703,0.291,1.275-0.42,1.873-0.773c2.371-1.412,5.058-1.789,7.712-2.019c3.472-0.29,5.223,2.093,6.612,4.787
		c1.916,3.722,2.977,7.837,5.025,11.505C88.038,83.139,87.6,84.787,87.128,86.43z"/>
	<path fill="#C40C05" d="M88.51,81.489c-3.031-2.364-3.597-6.157-5.215-9.307c-1.305-2.536-2.23-6.035-5.206-5.89
		c-3.646,0.177-8.224-0.429-10.487,4.791c-0.853-2.875-2.718-3.033-4.85-3c-3.715,0.047-5.556-3.312-8.305-5
		c-2.847-1.747-5.372-1.708-8.171-0.283c-3.569,1.81-6.569,4.421-9.789,6.726c-1.315-3.242-0.699-4.747,2.898-7.146
		c0.298-0.169,0.621-0.279,0.958-0.338c1.704,0.13,3.487,0.467,4.469-1.543c0.836-1.198,1.947-2.171,2.862-3.306
		c2.124-2.686,2.678-2.741,5.226-0.507c1.225,1.08,2.392,2.223,3.652,3.267c3.974,3.314,8.379,1.873,12.624,1.19
		c1.807-0.298,3.236-1.728,3.605-3.86c0.377-2.14,1.728-2.91,3.51-1.527c2.607,2.034,5.191,3.93,8.701,4.06
		c0.533,0.016,1.006,0.562,0.723,1.303c0.495,0.853,0.4,1.688,0.204,2.663c-0.519,2.772,1.414,13.409,2.553,14.854
		C88.486,79.582,88.494,80.539,88.51,81.489z"/>
	<path fill="#970306" d="M89.217,101.178c0.031-1.266-0.156-2.561,0.486-3.746c2.137-3.942,1.201-7.555-1.186-11.01
		c0.902-1.861,2.473-2.324,4.373-2.065c1.037,0.142,1.979,0.69,1.791,1.751C93.677,91.416,93.363,97,89.217,101.178z"/>
	<path fill="#D7280A" d="M110.326,63.917c-1.037,0.695-0.52,1.948-1.062,3.25c-2.403-3.33-5.474-6.016-3.446-10.487
		c0.297-0.691,0.203-1.358-0.377-1.912c-2.168-2.27-0.787-4.61-0.143-6.942c1.146-1.681,2.215-1.43,3.063,0.212
		c0.738,1.437,0.754,3.094,1.101,4.657c0.196,0.699,0.407,1.398,0.612,2.097C110.436,57.839,110.602,60.872,110.326,63.917z"/>
	<path fill="#E3601F" d="M100.431,35.772c4.861,3.557,6.81,8.984,9.117,14.187c-0.039,0.919-0.056,1.834-0.086,2.752
		c-0.66-1.531-1.351-3.051-1.979-4.594c-0.345-0.844-0.77-1.013-1.443-0.354c-1.398,0.177-1.555-1.1-2.184-1.826
		c-1.101-3.192-3.425-5.871-3.959-9.302C100.007,36.298,100.172,36.007,100.431,35.772z"/>
	<path fill="#F1956F" d="M92.012,29.479c0.903,0.514,1.822,1.037,2.719,1.551c0.36,1.213,0.063,2.026-1.336,2.164
		c-2.152-1.319-4.531-1.943-7.005-2.309c-1.79,0.251-1.696-0.793-1.397-2.01C87.379,28.521,89.703,28.803,92.012,29.479z"/>
	<path fill="#ACC97F" d="M63.91,21.076c0.467-0.008,0.934-0.023,1.403-0.039c0.346,0.337,0.607,0.722,0.707,1.197
		c0.168,0.432,0.022,1.159,0.883,0.982c0.859-0.597,1.725-1.547,2.619-0.075c0.063,0.483,0.142,0.958,0.203,1.433
		c0.174,0.699,0.338,1.398,0.504,2.089c0.346,0.797-0.268,1.174-0.771,1.052c-2.22-0.569-3.624,0.727-5.089,1.995
		c-1.543-0.102-2.25-1.131-2.686-2.45C61.601,24.903,61.369,22.488,63.91,21.076z"/>
	<path fill="#A8C47E" d="M64.585,29.525c0.321-2.91,1.512-4.245,4.465-2.501c0.438,0.267,0.863,0.031,1.179-0.361
		c0.455,0.699,0.91,1.41,1.365,2.117c0.104,0.439,0.188,0.883,0.283,1.335c-1.752,2.501-3.975,2.902-6.607,1.496
		C64.684,31.038,64.287,30.394,64.585,29.525z"/>
	<path fill="#F01408" d="M90.646,41.426c-0.252,0-0.511,0.008-0.754,0.016c-1.32-0.691-1.587-1.622-0.652-2.831
		c0.134-1.005,0.668-2.211,0.299-2.98c-1.201-2.501,0.558-1.924,1.799-1.987c0.52-0.546,1.139-0.62,1.814-0.354
		c0.619,0.208,1.099,0.625,1.547,1.068c1.351,0.974,3.25,1.044,4.209,2.646c0.377,0.522,0.738,1.068,1.131,1.598
		c1.814,2.501,1.979,5.532,2.686,8.391c0.079,1.331-0.148,2.556-1.178,3.518c-1.131,0.613-1.643-0.2-2.184-0.938
		c-0.172-0.306-0.299-0.628-0.4-0.966c-0.125-0.483-0.165-0.974-0.182-1.473c-0.203-1.39-0.016-3.063-2.205-3.008
		c-1.154,0.146-1.995-0.385-2.639-1.276C93.096,41.717,92.012,41.257,90.646,41.426z"/>
	<path fill="#F23815" d="M78.6,33.056c2.457,2.678,4.153,1.417,5.857-1.665c1.838,3.879,1.587,7.649,1.885,11.316
		c0.018,0.998-0.589,1.536-1.413,1.904c-1.916,0.13-3.471,0.844-4.522,2.541c-0.424,0.684-0.754,1.842-2.02,1.072
		c-2.002-5.709,0.039-11.631,4.029-12.875c-1.909-0.09-3.59,2.171-6.063,1.826C75.6,34.996,76.094,33.482,78.6,33.056z"/>
	<path fill="#F69495" d="M84.913,44.155c0.485-0.483,0.95-0.966,1.429-1.449c1.964-2.379-0.408-5.262,0.707-7.841
		c1.9,0.742,0.975,2.847,2.191,3.738c0.22,0.95,0.432,1.893,0.65,2.831c-0.267,3.298-1.648,6.436-1.396,9.805
		c-0.534,0.483-0.127,1.582-1.131,1.759C83.594,50.827,82.525,46.982,84.913,44.155z"/>
	<path fill="#F68054" d="M78.6,33.056c-1.006,1.225-2.324,2.301-2.041,4.143c0.195,0.314,0.18,0.604-0.088,0.868
		c-0.338,0.075-0.65,0.023-0.936-0.161c-0.172-0.161-0.281-0.377-0.463-0.522c-1.139-1.029,0.645-3.514-1.563-3.754
		c-2.197-0.259-4.438,0.208-5.917,2.258c-0.271,0.389-0.644,0.667-1.114,0.805c-2.022-1.076-1.595-3.015-1.717-4.767
		c0.074-0.381,0.251-0.695,0.521-0.966c2.416,1.398,4.434-0.236,6.578-0.844c0.854,0,1.711,0,2.566,0
		c1.006,1.237,2.441,0.601,3.668,0.86c0.942,1.158,2.701,0.071,3.785,1.206C80.908,33.482,79.619,32.742,78.6,33.056z"/>
	<path fill="#F9AFAB" d="M93.426,33.899c-0.707-0.079-1.396-0.169-2.089-0.248c-1.634-0.95-3.927-0.714-4.947-2.768
		c2.921-0.923,5.544-0.844,7.335,2.14C93.756,33.361,93.66,33.66,93.426,33.899z"/>
	<path fill="#ED7C43" d="M93.426,33.899c0.094-0.287,0.188-0.585,0.282-0.875c0.346-0.667,0.69-1.335,1.021-1.995
		c0.512,0.185,1.021,0.369,1.523,0.558c0.559,1.139,1.656,1.598,2.693,2.144c0.494,0.683,0.988,1.359,1.483,2.042
		c-0.016,0.275-0.03,0.542-0.047,0.813c-0.801,0.467-0.464,1.681-1.382,2.069c-0.221-0.483-0.456-0.966-0.676-1.441
		c-0.975-1.527-1.995-2.984-4.17-2.002C93.613,34.947,93.331,34.527,93.426,33.899z"/>
	<path fill="#A8C47E" d="M69.535,23.141c-1.616-0.958-1.303,1.174-2.182,1.366c-0.742-0.624-0.201-2.517-2.035-2.057
		c0-0.476,0-0.942,0-1.414c1.865-0.075,1.006-2.188,2.121-2.831C68.398,19.74,69.678,21.139,69.535,23.141z"/>
	<path fill="#CE2302" d="M27.562,69.938c0.345-1.712,0.345-3.42,0.098-5.132c0.562-4.979-0.008-10.044,1.295-14.983
		c0.578-2.171,1.139-4.26,2.482-6.079c1.296,0.483,2.356,1.744,3.879,1.382c3.141-0.73,4.806,0.981,6.078,3.459
		c0.377,0.722,0.805,1.535,0.628,2.301c-0.974,4.083-1.209,8.266-1.877,12.4c-0.608,0.73-1.504,0.499-2.273,0.632
		c-5.501,0.982-7.158,2.875-7.425,8.344c-0.094,2.175,0.196,4.523-1.943,6.047c-0.974-0.157-0.974-0.157-1.343-1.696
		C27.781,74.414,27.562,72.168,27.562,69.938z"/>
	<path fill="#DB2704" d="M39.946,47.756c-1.382-1.865-2.67-3.4-5.556-2.277c-1.618,0.636-3.522-0.157-3.538-2.611
		c0.153-1.512,0.746-2.776,2.097-3.604c0.797-0.515,1.61,0.514,2.399-0.047c0.66-0.385,1.115-0.997,1.673-1.504
		c1.123-0.974,1.896-0.62,2.427,0.652C39.844,41.485,41.733,44.524,39.946,47.756z"/>
	<path fill="#EC4E1B" d="M32.957,38.541c2.698-1.374,3.918-4.551,6.86-5.631c0.926-0.231,1.747-1.323,2.823-0.353
		c2.717,3.145-1.084,3.942-2.065,5.752c-0.742,0.263-1.398,0.125-1.979-0.389c-0.915-0.617-0.762,0.75-1.359,0.734
		c-1.111-0.153-1.566,0.33-1.398,1.429c-1.739,2.431-1.939-0.514-2.897-0.828C32.949,39.023,32.957,38.78,32.957,38.541z"/>
	<path fill="#AC0704" d="M28.567,80.83c-0.129-0.92-0.255-1.847-0.385-2.771c1.076-0.564,1.956-0.291,2.678,0.636
		c0.106,0.691,0.145,1.548,1.037,1.578c0.942,0.017,1.574-0.824,1.594-1.586c0.078-6.644,6.247-7.021,10.017-9.849
		c0.475,0.975,0.098,1.916-0.417,2.623c-3.522,4.822-4.076,10.742-6.015,16.131c-0.797,2.229-1.873,3.109-4.084,1.869
		c-0.526-1.146-1.319,0.36-2.179-3.017c0.146-0.815-0.22-1.478-0.695-2.089C29.984,83.006,29.348,81.891,28.567,80.83z"/>
	<path fill="#970306" d="M42.706,101.938c-2.045-1.782-3.683-3.871-5.002-6.243c0.44-5.607,1.527-11.042,3.762-16.264
		c1.182-2.766,2.576-5.191,4.963-7.076c3.306-2.623,4.936-2.693,8.411-0.141c3.797,2.779,7.091,6.117,10.327,9.502
		c1.543,1.617,3.2,2.229,5.345,1.773c0.676-0.156,1.383-0.188,2.09-0.22c6.518-0.394,6.809-0.181,9.627,5.67
		c1.053,2.177,1.869,4.587,4.178,5.914c-0.211,0.659-0.346,1.374-0.676,1.972c-0.597,1.114-1.265,2.48-2.686,2.449
		c-1.516-0.047-1.869-1.523-2.293-2.749c-0.534-1.539-1.162-3.055-2.293-4.287c-0.803-0.849-1.822-1.021-2.891-0.776
		c-1.037,0.228-1.067,1.105-1.107,1.924c-0.078,1.695-0.313,3.471-2.104,4.066c-1.9,0.629-3.299-0.683-4.595-1.908
		c-1.213-1.139-2.588-2.474-2.34-4.123c0.683-4.412-2.435-6.815-4.673-9.674c-0.938-1.209-2.156-1.328-3.232-0.031
		c-3.114,3.723-6.859,7.106-9.094,11.293c-1.296,2.435-2.262,5.15-3.852,7.523C44.081,101.239,43.621,101.854,42.706,101.938z"/>
	<path fill="#A60405" d="M86.39,94.849c-1.218,0.737-2.176,0.62-2.843-0.786c-0.699-1.477-1.461-2.93-2.184-4.396
		c-2.78-5.601-4.492-6.543-10.774-5.043c-2.403,0.582-3.978,0.063-5.592-1.647c-3.361-3.534-6.859-6.935-10.68-9.989
		c-3.337-2.662-7.527-2.042-9.859,2.874c-2.419,5.089-5.941,10.146-4.775,16.429c0.279,1.531-0.644,2.67-1.979,3.408
		c-0.989-1.335-1.802-2.851-3.377-3.619c-0.008-1.015-0.549-1.674-1.401-2.129c-0.201-0.197-0.255-0.361-0.161-0.511
		c0.098-0.134,0.177-0.196,0.267-0.196c2.258,0.62,2.356-0.313,3.047-2.474c1.963-6.149,3.079-12.738,7.429-17.913
		c4.885-4.771,7.111-4.685,11.332,0.471c0.66,0.785,0.942,1.916,2.034,2.334c3.369,1.971,5.646,5.174,8.606,7.608
		c1.391,1.14,2.65,1.83,4.293,0.416c6.91-5.97,11.26-1.798,13.82,4.626c0.77,1.932,0.564,4.547,3.52,4.932
		c0.627,1.76-0.457,3.274-0.707,4.916C86.404,94.377,86.39,94.627,86.39,94.849z"/>
	<path fill="#990405" d="M86.404,94.156c-0.203-1.703,0.283-3.307,0.699-4.916c0.229,0,0.463-0.016,0.69-0.016
		C88.557,91.211,87.152,92.586,86.404,94.156z"/>
	<path fill="#D00705" d="M90.646,41.426c1.365-2.78,2.732-1.19,3.77,0.177c0.676,0.911,0.927,2.124,2.419,1.955
		c0.36,0.2,0.628,0.499,0.832,0.876c0.856,4.358,0.503,8.411-2.851,11.756c-2.521-1.06-3.91,0.844-5.553,2.109
		C88.832,52.598,91.4,47.144,90.646,41.426z"/>
	<path fill="#C81105" d="M103.258,61.836c-0.063,5.824,0.126,11.525,4.405,16.237c0.825,0.896,1.5,2.606,0.542,4.13
		c-2.93-4.742-5.371-9.736-7.76-14.768c-0.737-1.57-1.381-3.314-3.518-3.526c-1.24-1.857-2.311-3.738-0.652-5.917
		c1.422-1.39,1.469-3.393,2.254-5.073c0.188-0.275,0.455-0.467,0.763-0.597c0.338-0.055,0.659-0.023,0.974,0.09
		c1.422,1.052,1.406,2.654,1.107,4.037C100.878,58.743,101.656,60.38,103.258,61.836z"/>
	<path fill="#D11F14" d="M96.977,58.354c-2.185,1.842,0.707,3.699-0.039,5.548c-2.082-0.2-2.105-1.712-2.099-3.263
		c0.017-1.488-0.017-2.968-0.03-4.457c1.334-3.868,2.842-7.704,2.137-11.933c2.01-0.208,1.412,2.218,2.748,2.701
		c0,0.515,0,1.037,0,1.563c-0.777,1.3,0.211,2.878-0.629,4.17l0.017-0.031C98.199,54.495,96.488,56.021,96.977,58.354z"/>
	<path fill="#D7280A" d="M103.258,61.836c-2.827-0.377-4.162-1.48-2.969-4.665c0.503-1.327,0.707-3.185-0.598-4.551
		c-0.597-1.182-0.941-2.348,0.149-3.467c0.463,0.467,0.919,0.926,1.39,1.394c3.057,1.167,3.487,2.333,2.073,5.604
		C103.281,58.06,103.266,59.948,103.258,61.836z"/>
	<path fill="#EB4A34" d="M103.297,56.16c0.057-2.148-0.016-4.245-2.072-5.604c0.229-1.174,0.447-2.356,0.676-3.538
		c1.42,0.514,2.111-0.467,2.834-1.386c0.439,0.711,0.863,1.417,1.305,2.132c-0.252,2.34-1.006,4.625-0.581,7.021
		C105.261,56.064,104.373,56.242,103.297,56.16z"/>
	<path fill="#D21704" d="M85.714,61.114c-3.771-0.989-7.655-1.504-10.382-4.896c-0.958-1.209-1.445,0.008-1.594,1.053
		c-0.559,3.785-3,5.25-6.594,5.242c-0.468,0-0.998-0.137-1.387,0.032c-5.987,2.574-9.784-1.054-13.306-4.906
		c-1.979-2.148-3.075-2.019-4.044,0.628c-1.143-0.883-1.174-2.446-2.132-3.467c-1.81-1.92-1.567-3.651,0.644-5.104
		c3.683-2.07,7.052-1.167,10.374,2.764c0.337,0.377,0.667,0.766,1.021,1.127c1.127,1.174,2.533,2.018,3.624,3.255
		c1.104,1.256,2.663,1.916,4.28,2.203c3.482,0.621,5.54-1.535,4.873-4.959c-0.143-0.683-0.322-1.359-0.346-2.065
		c0.941-2.914,2.025-3.459,3.879-1.425c2.137,2.348,5.215,3.467,7.084,6.086c0.927,1.304,2.059,1.304,3.094,0
		c0.487-0.247,0.975-0.255,1.477-0.023c0.188,0.169,0.275,0.361,0.26,0.573c-0.016,0.216-0.055,0.33-0.102,0.33
		C86.248,58.75,86.798,60.102,85.714,61.114z"/>
	<path fill="#E04B3A" d="M86.438,57.549c-0.017-0.216-0.031-0.432-0.063-0.648c-0.66-0.742-0.856-1.571-0.534-2.517
		c0.32-0.95,1.391-1.056,1.955-1.731c0.229-0.475,0.479-0.946,0.699-1.414c0,1.688-0.008,3.377,0.008,5.073
		C88.518,57.922,87.865,58.39,86.438,57.549z"/>
	<path fill="#C21301" d="M30.86,78.693c-0.892-0.212-1.787-0.432-2.678-0.636c-0.047-0.261-0.098-0.503-0.145-0.771
		c0.361-2.388,0.781-4.744,0.75-7.187c-0.075-5.788,4.943-9.333,10.574-7.629c0.231-0.192,0.448-0.177,0.644,0.055
		c-2.148,1.842-3.805,3.942-3.526,7.001c-2.533,2.152-4.445,4.604-4.366,8.176C32.128,78.349,31.437,78.561,30.86,78.693z"/>
	<path fill="#AC0704" d="M83.594,84.31c-0.88-1.226-1.648-2.537-2.639-3.66c-3.612-4.067-6.447-4.351-10.193-0.471
		c-2.199,2.284-3.684,2.301-5.701,0.063c-2.655-2.938-5.455-5.718-8.188-8.584c2.18,0.559,3.919,1.563,5.431,3.416
		c1.688,2.073,4.001,3.518,7.052,2.42c1.297-0.479,2.719-0.551,4.068-0.881C78.552,75.396,83.122,78.858,83.594,84.31z"/>
	<path fill="#DD452F" d="M40.005,62.527c-0.22-0.023-0.428-0.039-0.644-0.055c-0.75-3.766-0.935-7.488,0.938-11.026
		c0.699-1.327-0.169-2.47-0.354-3.691c-0.24-3.306-1.488-6.475-1.351-9.836c0.636,0,1.272,0,1.904,0
		c0.604-0.609,1.194-0.456,1.771,0.043c0.707,1.598,1.037,3.738,3.691,2.678c0.868-0.129,1.72-0.106,2.548,0.2
		c2.994,2.75,2.825,5.459-0.461,7.76c-0.275-0.122-0.459-0.369-0.711-0.538c0.244,0.192,0.428,0.44,0.684,0.66
		c0.137,0.652,0.129,1.26-0.224,1.833c-2.156,1.029-3.322,2.065-0.322,3.632c1.755,0.919,0.722,2.694,0.935,4.087
		c-1.135,0.715-2.093,1.606-2.8,2.765c-1.433,1.209-3.071,1.696-4.936,1.425C40.444,62.474,40.229,62.497,40.005,62.527z"/>
	<path fill="#C21301" d="M40.672,62.465c1.508-0.958,3.231-1.15,4.936-1.433C44.426,63.118,42.922,64.071,40.672,62.465z"/>
	<path fill="#F89B99" d="M104.734,45.631c-0.016,0.228-0.03,0.452-0.047,0.667c-0.07,1.088,0.486,2.639-0.841,2.992
		c-1.555,0.412-0.966-1.759-1.938-2.273c-1.227-2.694-1.178-5.831-2.891-8.364c0.676-0.55-0.957-2.639,1.383-2.069
		C101.797,39.617,103.73,42.4,104.734,45.631z"/>
	<path fill="#F07B45" d="M54.05,27.966c2.053-1.873,4.543-1.104,6.903-1.166c0.393,0.192,0.785,0.377,1.182,0.569
		c0.817,0.718,1.63,1.441,2.45,2.164c0.235,0.475,0.468,0.958,0.698,1.433c-0.008,0.231-0.016,0.467-0.03,0.699
		c-1.32,0.444-2.451-1.103-3.813-0.337c-2.886,0.408-5.395-1.736-8.297-1.229C52.637,29.035,53.465,28.551,54.05,27.966z"/>
	<path fill="#94BF4E" d="M65.318,22.45c2.145-0.766,2.267,0.475,2.035,2.057C65.857,24.628,64.554,24.559,65.318,22.45z"/>
	<path fill="#F23F0F" d="M94.164,35.21c0.377-0.797,0.754-1.583,1.225-2.58c1.414,1.343,2.568,2.686,2.938,4.583
		C97.415,35.533,95.091,36.82,94.164,35.21z"/>
	<path fill="#EE4D3D" d="M99.693,46.958c-2.371,0.565-1.713-1.92-2.748-2.701c-0.041-0.232-0.08-0.467-0.119-0.699
		c0.197-0.691,0.464-1.441,1.281-0.577C99.158,44.073,99.818,45.376,99.693,46.958z"/>
	<path fill="#DB463F" d="M99.834,49.163c-0.063,1.158-0.11,2.309-0.157,3.467c-0.204,0.024-0.416,0.047-0.612,0.067
		c-0.69-1.531-1.365-3.051,0.629-4.182C99.724,48.737,99.771,48.945,99.834,49.163z"/>
	<path fill="#E9514B" d="M87.795,52.661c-0.031,0.927-0.542,1.37-1.438,1.449c-3.252,0.836-6.871-1.551-8.011-5.285
		c0.11-0.133,0.22-0.263,0.313-0.4c1.305-2.548,2.246-5.654,6.252-4.268C83.201,47.894,85.824,50.167,87.795,52.661z"/>
	<path fill="#F22B0C" d="M76.455,37.811c0.016-0.204,0.047-0.412,0.104-0.604c1.53-3,4.475-1.787,6.831-2.258
		c0.581-0.114,0.824,0.354,0.816,0.86c-0.009,0.483-0.188,1.135-0.729,0.931c-3.824-1.414-3.33,1.987-4.14,3.758
		c-1.153,2.525-0.55,5.273-0.675,7.928l-0.016,0.023c-0.512,0.412-0.08,1.398-0.976,1.579c-0.754-0.169-1.067-0.758-1.304-1.402
		c-0.188-1.445-1.523-2.808-0.69-4.308c0.738-1.343-0.03-1.555-0.974-1.893c-1.162-0.416-2.514-0.554-3.243-1.802
		C72.206,38.049,75.316,39.675,76.455,37.811z"/>
	<path fill="#F7BBC1" d="M66.717,36.476c0.586-2.693,6.589-5.364,8.852-3.942c0.871,0.538,1.067,1.272,0.36,2.011
		c-1.036,1.103-0.313,2.187-0.125,3.291c0.394,1.327-0.534,1.72-1.491,1.767c-1.398,0.067-2.734,0.582-4.068,0.758
		C67.585,40.711,66.596,38.968,66.717,36.476z"/>
	<path fill="#F74D12" d="M66.717,36.476c2.389,3.801,5.639,4.284,9.087,1.359c0.22,0.031,0.438,0.023,0.651-0.024
		c-0.086,3.538-3.573,1.335-4.846,2.878c-0.975,1.535-2.238,1.488-3.66,0.714c-1.186-0.958-2.176-2.057-2.834-3.455
		c-0.439-0.927-0.33,0.514-0.684,0.185c-0.314,0.023-0.585-0.075-0.829-0.267c-0.962-1.527-0.809-3.436-1.712-4.971
		c-0.255-0.616-0.452-1.245-0.185-1.912c1.005-1.425,1.005-1.425,3.546,0.691C66.654,33,65.261,35.164,66.717,36.476z"/>
	<path fill="#F76D48" d="M35.839,40.083c-1.849-0.345-1.28-1.245-0.42-2.081c0.95-0.926,1.618-0.707,1.818,0.652
		C36.769,39.129,36.302,39.608,35.839,40.083z"/>
	<path fill="#E95E1F" d="M54.05,27.966c-0.193,0.781-0.385,1.551-0.585,2.333c1.92,1.633-0.291,2.309-0.766,3.393
		c-0.683,0.883-0.416,2.203-1.374,2.968c-0.852,0.346-1.626,0.071-2.372-0.337c-0.597-0.397-1.245-0.927-1.256-1.594
		c-0.016-2.596-1.429-2.419-3.177-1.751c-0.777,0.24-1.566,0.491-2.364,0.071c-0.73-0.805-1.566,0.122-2.34-0.138
		c0.691-1.221,2.238-1.068,3.137-1.951c2.745-0.644,5.693-0.067,8.332-1.394C52.201,29.035,53.128,28.497,54.05,27.966z"/>
	<path fill="#F7A5A3" d="M42.156,33.047c0.703-0.33,1.41-0.652,2.109-0.982c3.828-0.255,3.828-0.255,2.815,2.333
		c-1.963,0.185-2.164,1.457-1.842,3.031c-0.031,0.338-0.161,0.644-0.381,0.911c-0.868,0.667-1.751,1.135-2.772,0.291
		c-0.314-0.727-1.037-0.499-1.586-0.703c0.283-1.013-0.125-2.517,1.296-2.788C44.073,34.688,41.564,33.645,42.156,33.047z"/>
	<path fill="#DB463F" d="M96.977,58.354c-1.996-0.683-1.682-1.967-0.677-3.185c0.802-0.946,1.847-1.68,2.78-2.517
		C98.656,54.655,99.395,57.102,96.977,58.354z"/>
	<path fill="#D62614" d="M71.625,51.97c0.188,0.668,0.581,1.351,0.533,2.011c-0.102,1.48,1.916,3.185-0.188,4.397
		c-2.058,1.202-4.066,2.713-6.813,1.61c-3.137-1.245-5.23-3.722-7.594-5.894c0.597-0.758,1.512-0.903,2.164-0.467
		c3.114,2.085,3.216-0.098,3.369-2.273c0.098-0.314,0.244-0.604,0.42-0.872c0.667-0.73,1.488-1.213,2.395-1.575
		c1.642,0.377,3.295-0.428,4.943,0.008C71.594,49.807,70.572,51.156,71.625,51.97z"/>
	<path fill="#E01E02" d="M47.74,48.456c2.434-2.179,2.626-4.543,0.585-7.099c-0.499-0.636-0.53-1.296-0.122-1.987
		c1.516-0.821,2.43,0.145,3.204,1.189c0.691,0.935,1.221,1.987,2.313,2.549c2.76,1.884,3.475,4.755,3.805,7.825
		c0.098,0.53,0.098,1.068-0.039,1.602c-0.122,0.346-0.33,0.625-0.636,0.844c-1.351-2.415-3.789-3.016-6.153-3.86
		c-1.445-0.514-2.112,0.208-2.902,1.037C47.779,49.856,47.764,49.154,47.74,48.456L47.74,48.456z"/>
	<path fill="#D61806" d="M71.625,51.97c-1.43-0.636-1.383-1.641-0.689-2.807c0.141-1.037,0.762-1.638,1.711-1.952
		c1.713-0.208,3.282,0.008,4.603,1.237c0.235,0.483,0.472,0.958,0.707,1.441c2.788,1.896,5.276,4.092,7.036,7.021
		c-0.896,2.772-2.324,3.279-3.816,0.938c-1.963-3.102-5.654-4.044-7.729-7.037C72.191,49.004,71.72,50.702,71.625,51.97z"/>
	<path fill="#E23A23" d="M56.85,53.378c0.032-0.267,0.063-0.526,0.098-0.789c2.179-1.052,4.343-2.156,6.891-1.398
		c0.016,0.569,0.11,1.146,0.04,1.712c-0.146,1.19,0.66,2.78-0.605,3.483c-1.189,0.66-1.92-0.82-2.795-1.464
		c-0.86-0.636-1.842-0.903-2.914-0.829C57.333,53.851,57.093,53.61,56.85,53.378z"/>
	<path fill="#D82B1C" d="M84.99,56.901c-3.141-1.547-4.773-4.61-7.035-7.021c0.229-0.475,0.463-0.958,0.691-1.433
		c1.75,3.008,4.113,5.179,7.711,5.654c0,0.935,0,1.865,0.017,2.8C85.918,56.91,85.455,56.901,84.99,56.901z"/>
	<path fill="#F26657" d="M48.494,39.354c-0.055,0.667-0.11,1.343-0.169,2.01c-0.931,0.039-1.85,0.071-2.78,0.114
		c-2.415-0.805,0.153-2.537-0.675-3.636c-0.043-0.244-0.09-0.483-0.129-0.723c0.023-1.225,0.432-2.187,1.696-2.607
		c2.47-3.659-1.343-1.712-2.171-2.446c1.625-1.005,3.322-0.279,5.678-0.569c-1.335,1.657-2.309,2.953-0.766,4.304
		C49.507,37.083,49.645,38.349,48.494,39.354z"/>
	<path fill="#E91405" d="M44.87,37.841c0.836,0.216,2.572-0.177,1.044,1.606c-0.491,0.573-1.28,1.166-0.361,2.018
		c-3.129,0.872-3.942,0.212-3.467-2.843C43.008,38.363,43.943,38.097,44.87,37.841z"/>
	<path fill="#EE6960" d="M47.74,48.456c-2.188-0.722-1.434-2.14-0.86-3.974C48.255,45.868,47.556,47.266,47.74,48.456L47.74,48.456z
		"/>
	<path fill="#F7CACC" d="M51.945,33.017c0.475-0.935,2.556-0.958,1.527-2.717c1.457-1.288,2.717-2.776,4.559-0.169
		c0.42,0.593,2.548-0.083,3.683,0.852c0.275,0.432,0.546,0.86,0.82,1.296c0.417,0.491,0.224,1.107,0.361,1.665
		c0.911,3.601,0.884,3.715-2.533,2.772c-1.826-0.507-1.928,1.39-3.063,1.755c-1.351,0.64-2.591,0.73-3.491-0.726
		c-0.346-1.084-1.076-0.271-1.641-0.322c-0.322-0.153-0.522-0.385-0.605-0.73C51.785,35.471,51.255,34.183,51.945,33.017z"/>
	<path fill="#EB1004" d="M77.264,48.439c-1.712,0.216-3.313-0.291-4.932-0.691c-2.137,0.314-4.771-1.657-6.307,1.39
		c-0.129,1.327-1.063,1.449-2.107,1.402c-0.44-0.259-0.691-0.667-0.86-1.143c-0.306-2.333-1.174-4.189-3.844-4.527
		c-0.322-0.177-0.577-0.412-0.805-0.683c-0.793-1.649,0.212-2.383,1.52-2.854c1.104-0.405,2.285-0.389,3.443-0.467
		c1.583-0.075,3.137-1.296,4.759-0.169c1.17,0.923,2.324,0.169,3.479-0.008c1.242,0.255,2.521,0.408,3.724,0.789
		c1.405,0.44,3.235,0.73,1.257,2.886C75.27,45.786,77.955,46.913,77.264,48.439z"/>
	<path fill="#F34F35" d="M63.886,42.118c-1.221,0.016-2.462-0.008-3.683,0.083c-1.28,0.086-1.857,0.691-1.174,1.995
		c-0.95,2.308-0.475,5.065-2.218,7.122c-0.628-2.831-1.359-5.611-3.514-7.751c-2.462-1.841-3.208-4.276-2.148-6.989
		c0.239-1.197-0.306-2.564,0.797-3.561c0,1.397,0.008,2.792,0.008,4.189c1.206,0.883,1.583,2.776,3.456,2.823
		c0.342-0.09,0.727-0.153,0.919-0.428c1.734-2.442,3.635-4.099,6.599-1.645c0.204,0.169,0.66-0.02,0.997-0.067
		c0.212,0.008,0.42,0.016,0.636,0.04C66.18,39.617,64.77,40.826,63.886,42.118z"/>
	<path fill="#F68078" d="M63.918,37.889c-0.224,0.919-0.66,1.665-1.614,0.781c-2.615-2.446-3.981-1.319-4.924,1.536
		c-0.271,0.836-1.005,1.221-1.896,1.237c-0.667-1.637,0.593-2.474,1.449-3.487c1.331-3.075,3.133-3.789,5.587-0.695
		c1.005-1.944-0.506-3.463,0.008-4.991C63.855,33.935,63.879,35.91,63.918,37.889z"/>
	<path fill="#F42808" d="M63.886,42.118c0.267-1.39,0.935-2.717,0.667-4.189c0.338-0.311-0.306-1.783,0.676-1.029
		c1.213,0.942,1.955,2.509,2.895,3.797C66.717,41.171,65.3,41.646,63.886,42.118z"/>
	<path fill="#F2330E" d="M51.149,36.578c0.039,2.533,0.122,5.069,2.148,6.997c-1.198,0.047-1.917-0.451-2.227-1.657
		c-0.338-1.319-1.335-2.089-2.576-2.564c0.106-1.213-0.401-2.541,0.691-3.554C49.837,36.056,50.489,36.313,51.149,36.578z"/>
	<path fill="#F1C2C8" d="M46.444,34.512c-0.562,0.868-1.135,1.736-1.696,2.607c-1.304-1.386-0.75-2.721,0.416-3.644
		C45.985,32.823,46.229,33.875,46.444,34.512z"/>
	<path fill="#F1654F" d="M56.811,51.317c0.4-2.486-1.005-5.525,2.218-7.131c0.208,0.016,0.428,0.047,0.636,0.094
		c2.266,0.903,2.619,3.42,4.158,4.939c0.031,0.44,0.063,0.884,0.102,1.327c-0.046,0.21-0.078,0.426-0.086,0.645
		c-2.246,0.73-4.397,1.912-6.891,1.398C56.905,52.162,56.858,51.746,56.811,51.317z"/>
	<path fill="#E43221" d="M66.027,49.139c0.313-3.683,0.683-3.946,3.871-2.611c0.832,0.354,1.633,0.813,2.435,1.213
		c-0.455,0.475-0.927,0.95-1.397,1.414C69.301,49.284,67.648,51.825,66.027,49.139z"/>
	<path fill="#F6A9A7" d="M56.932,37.956c0.169,1.429-0.844,2.372-1.449,3.487c-2.733-0.11-3.185-2.136-3.522-4.237
		c0.192,0.016,0.401,0.031,0.601,0.055c0.483-0.055,0.942-0.538,1.457-0.103C54.776,38.194,55.829,38.188,56.932,37.956z"/>
	<path fill="#FCF1F8" d="M54.019,37.159c-0.467,0.201-0.915,0.73-1.457,0.103c0.357-0.821-0.53-2.466,0.997-2.38
		C54.616,34.939,54.447,36.248,54.019,37.159z"/>
	<path fill="#E23A23" d="M63.823,49.221c-3.451,0.086-2.438-3.573-4.158-4.939C63.172,44.144,63.78,46.438,63.823,49.221z"/>
</g>
<g>
	<path d="M152.699,60.06h-17.366h-1.012c-0.936,0-1.654-0.175-2.162-0.526c-0.505-0.35-0.758-0.849-0.758-1.498
		c0-1.064,0.519-1.765,1.558-2.103c0.854-0.285,1.354-0.46,1.499-0.526c0.142-0.064,0.291-0.213,0.446-0.447
		c0.312-0.415,0.467-1.077,0.467-1.986V13.998c0-0.908-0.155-1.57-0.467-1.986c-0.155-0.234-0.305-0.383-0.446-0.448
		c-0.145-0.064-0.645-0.24-1.499-0.525c-1.039-0.338-1.558-1.039-1.558-2.103c0-0.649,0.253-1.148,0.758-1.5
		c0.508-0.35,1.227-0.525,2.162-0.525h1.012h17.366h1.013c1.842,0,2.765,0.675,2.765,2.024c0,1.09-0.494,1.792-1.481,2.103
		l-1.206,0.389c-0.754,0.26-1.129,1.117-1.129,2.57v38.976c0,1.454,0.375,2.311,1.129,2.57l1.206,0.389
		c0.987,0.312,1.481,1.013,1.481,2.103c0,1.35-0.923,2.024-2.765,2.024H152.699z M155.97,30.974h6.347V13.998
		c0-1.453-0.377-2.31-1.129-2.57l-1.246-0.389c-0.987-0.312-1.479-1.013-1.479-2.103c0-1.35,0.935-2.024,2.803-2.024h1.013h17.326
		h1.052c1.947,0,2.922,0.675,2.922,2.024c0,1.064-0.521,1.765-1.559,2.103c-0.857,0.285-1.356,0.461-1.5,0.525
		c-0.142,0.065-0.292,0.214-0.447,0.448c-0.313,0.416-0.468,1.078-0.468,1.986v38.82c0,1.428,0.392,2.297,1.17,2.609l1.245,0.428
		c1.038,0.338,1.559,1.051,1.559,2.142c0,1.376-0.975,2.063-2.922,2.063h-1.052h-17.326h-1.09c-1.817,0-2.726-0.688-2.726-2.063
		c0-1.09,0.492-1.804,1.479-2.142l1.246-0.428c0.752-0.233,1.129-1.103,1.129-2.609V34.829h-6.347V30.974z"/>
	<path d="M211.26,10.065c-1.323,0.467-2.258,1.104-2.804,1.908c-0.545,0.805-0.817,1.986-0.817,3.543v34.81
		c0,2.285,0.312,3.894,0.934,4.828c0.494,0.778,1.39,1.337,2.688,1.674v4.284c-5.763-0.468-10.591-2.635-14.484-6.502
		c-5.062-5.036-7.592-12.057-7.592-21.065c0-4.517,0.667-8.598,2.004-12.246c1.337-3.646,3.316-6.742,5.939-9.286
		c1.998-1.947,4.152-3.426,6.462-4.439c2.312-1.012,4.867-1.583,7.671-1.713V10.065z M214.452,10.065V5.86
		c2.805,0.13,5.367,0.701,7.691,1.713c2.323,1.013,4.482,2.492,6.482,4.439c5.295,5.166,7.943,12.343,7.943,21.532
		c0,9.008-2.53,16.029-7.594,21.065c-3.894,3.894-8.734,6.061-14.523,6.502v-4.284c0.676-0.155,1.201-0.356,1.577-0.603
		c0.376-0.247,0.721-0.604,1.033-1.071c0.699-1.064,1.05-2.674,1.05-4.828v-34.81c0-1.375-0.233-2.465-0.7-3.271
		c-0.312-0.545-0.682-0.974-1.109-1.286C215.874,10.649,215.257,10.351,214.452,10.065z"/>
	<path d="M239.761,6.911h10.241v4.711c-1.222,0.701-2.168,1.596-2.843,2.687c-1.116,1.765-1.868,3.854-2.259,6.269l-0.389,2.375
		c-0.131,0.753-0.409,1.344-0.837,1.772c-0.429,0.429-0.969,0.643-1.617,0.643c-0.675,0-1.226-0.234-1.654-0.701
		s-0.643-1.077-0.643-1.83V6.911z M270.442,6.911v45.75c0,1.013,0.196,1.739,0.585,2.181c0.207,0.26,0.402,0.422,0.585,0.486
		c0.181,0.065,0.778,0.228,1.79,0.487c1.246,0.285,1.869,1,1.869,2.141c0,0.675-0.337,1.221-1.012,1.636
		c-0.493,0.312-1.325,0.467-2.492,0.467h-1.285h-17.365h-1.285c-1.143,0-2.006-0.175-2.59-0.526
		c-0.584-0.35-0.876-0.875-0.876-1.576c0-1.142,0.623-1.856,1.869-2.141c1.013-0.259,1.608-0.422,1.791-0.487
		c0.181-0.064,0.363-0.227,0.545-0.486c0.39-0.441,0.583-1.168,0.583-2.181V6.911H270.442z M283.916,6.911v15.925
		c0,0.753-0.215,1.362-0.644,1.83c-0.427,0.467-0.98,0.701-1.654,0.701c-0.649,0-1.187-0.214-1.616-0.643
		c-0.428-0.428-0.707-1.019-0.838-1.772l-0.387-2.375c-0.392-2.414-1.145-4.503-2.261-6.269c-0.699-1.09-1.648-1.986-2.841-2.687
		V6.911H283.916z"/>
	<path d="M141.376,87.507v2.964c-1.063,0.29-1.876,0.742-2.433,1.351c-0.559,0.61-0.838,1.36-0.838,2.255
		c0,0.858,0.232,1.609,0.694,2.254c0.465,0.644,1.221,1.258,2.267,1.841c0.722,0.396,2.354,1.15,4.896,2.267
		c1.546,0.67,2.743,1.275,3.593,1.816c0.851,0.54,1.653,1.215,2.409,2.022c2.025,2.129,3.039,4.661,3.039,7.598
		c0,2.216-0.55,4.242-1.648,6.08s-2.61,3.279-4.534,4.327c-1.03,0.549-2.159,0.983-3.387,1.301s-2.374,0.477-3.438,0.477v-2.938
		c1.495-0.359,2.572-0.863,3.232-1.506c0.66-0.645,0.991-1.516,0.991-2.615c0-1.15-0.516-2.164-1.546-3.038
		c-0.686-0.568-1.99-1.271-3.915-2.114c-2.11-0.927-3.558-1.588-4.339-1.982c-0.782-0.396-1.534-0.859-2.255-1.391
		c-3.229-2.302-4.843-5.366-4.843-9.196c0-1.958,0.403-3.765,1.211-5.421c0.809-1.657,1.933-2.993,3.375-4.006
		C135.915,88.443,138.406,87.661,141.376,87.507z M140.036,121.121v2.938c-1.406,0-2.961-0.403-4.661-1.211
		c-0.635-0.292-1.073-0.48-1.313-0.566c-0.24-0.087-0.473-0.13-0.695-0.13c-0.345,0-0.602,0.056-0.773,0.168
		c-0.171,0.113-0.446,0.391-0.823,0.838c-0.31,0.376-0.644,0.566-1.005,0.566c-0.962,0-1.443-0.738-1.443-2.216v-9.376
		c0-0.479,0.138-0.889,0.412-1.224c0.275-0.335,0.618-0.512,1.031-0.527c0.378-0.018,0.674,0.09,0.888,0.321
		c0.215,0.231,0.4,0.641,0.554,1.224c0.396,1.478,0.967,2.859,1.713,4.147c0.748,1.288,1.619,2.379,2.614,3.271
		C137.547,120.271,138.716,120.865,140.036,121.121z M143.412,90.471v-2.835c1.03,0.069,1.923,0.202,2.679,0.399
		c0.756,0.198,1.829,0.589,3.219,1.172c0.344,0.138,0.628,0.206,0.851,0.206c0.326,0,0.566-0.111,0.721-0.335l0.567-0.747
		c0.274-0.377,0.61-0.566,1.006-0.566c0.462,0,0.801,0.168,1.017,0.502c0.214,0.336,0.322,0.864,0.322,1.585v8.499
		c0,0.498-0.143,0.907-0.426,1.225c-0.284,0.317-0.648,0.477-1.095,0.477c-0.344,0-0.661-0.112-0.952-0.335
		c-0.156-0.138-0.28-0.304-0.374-0.502c-0.095-0.197-0.185-0.528-0.271-0.992c-0.189-0.841-0.516-1.709-0.979-2.602
		c-0.463-0.894-1.005-1.691-1.623-2.396C146.837,91.834,145.282,90.915,143.412,90.471z"/>
	<path d="M157.99,88.203h6.774v3.116c-0.808,0.464-1.435,1.056-1.882,1.776c-0.736,1.169-1.235,2.551-1.492,4.148l-0.259,1.571
		c-0.085,0.497-0.269,0.888-0.553,1.172c-0.283,0.283-0.641,0.424-1.069,0.424c-0.446,0-0.811-0.153-1.095-0.463
		c-0.282-0.308-0.425-0.712-0.425-1.211V88.203z M178.288,88.203v30.266c0,0.669,0.129,1.15,0.386,1.442
		c0.138,0.171,0.267,0.278,0.386,0.322c0.121,0.043,0.516,0.149,1.187,0.322c0.824,0.188,1.236,0.66,1.236,1.416
		c0,0.447-0.225,0.808-0.671,1.082c-0.326,0.206-0.874,0.309-1.648,0.309h-0.85h-11.488h-0.851c-0.755,0-1.326-0.115-1.712-0.347
		c-0.387-0.232-0.58-0.58-0.58-1.044c0-0.756,0.413-1.229,1.236-1.416c0.67-0.173,1.065-0.279,1.185-0.322
		c0.121-0.044,0.241-0.151,0.361-0.322c0.258-0.292,0.387-0.773,0.387-1.442V88.203H178.288z M187.199,88.203v10.534
		c0,0.499-0.142,0.903-0.424,1.211c-0.284,0.31-0.647,0.463-1.095,0.463c-0.429,0-0.786-0.141-1.069-0.424
		c-0.284-0.284-0.468-0.675-0.554-1.172l-0.258-1.571c-0.257-1.598-0.755-2.979-1.493-4.148c-0.465-0.721-1.092-1.313-1.881-1.776
		v-3.116H187.199z"/>
	<path d="M192.557,113.084V92.89c0-0.6-0.103-1.038-0.309-1.313c-0.103-0.154-0.201-0.253-0.296-0.296s-0.426-0.16-0.991-0.349
		c-0.687-0.223-1.03-0.678-1.03-1.365c0-0.446,0.167-0.785,0.503-1.017c0.334-0.232,0.811-0.348,1.429-0.348h0.669h11.489h0.67
		l0.927,0.104c0.292,0.085,0.532,0.239,0.721,0.462c0.189,0.225,0.284,0.49,0.284,0.799c0,0.688-0.344,1.143-1.03,1.365
		c-0.567,0.188-0.898,0.306-0.991,0.349c-0.095,0.043-0.194,0.142-0.298,0.296c-0.206,0.274-0.309,0.713-0.309,1.313v21.612
		c0,1.459,0.04,2.478,0.116,3.053c0.077,0.574,0.235,1.093,0.477,1.558c0.223,0.43,0.472,0.738,0.746,0.929
		c0.276,0.188,0.799,0.402,1.572,0.643v3.375h-0.567c-2.231,0-4.086-0.198-5.563-0.593c-1.734-0.464-3.254-1.15-4.559-2.061
		c-1.306-0.911-2.233-1.933-2.781-3.065C192.849,117.138,192.557,115.386,192.557,113.084z M209.274,124.059v-3.375
		c1.718-0.223,3.151-0.927,4.302-2.112c1.306-1.355,1.957-3.305,1.957-5.847V95.931c0-2.354-0.901-3.993-2.704-4.92
		c-0.532-0.275-0.88-0.511-1.043-0.709c-0.163-0.197-0.245-0.485-0.245-0.861c0-0.447,0.164-0.766,0.489-0.954
		c0.327-0.19,0.859-0.283,1.599-0.283h6.31c0.532,0,0.89,0.013,1.069,0.038c0.181,0.025,0.356,0.09,0.527,0.193
		c0.447,0.258,0.67,0.609,0.67,1.056c0,0.379-0.138,0.696-0.411,0.953c-0.087,0.086-0.456,0.317-1.109,0.695
		c-0.754,0.412-1.348,1.044-1.776,1.895c-0.429,0.85-0.643,1.814-0.643,2.897v16.819c0,2.885-0.637,5.255-1.908,7.109
		c-0.927,1.374-2.257,2.473-3.992,3.298C211.507,123.568,210.477,123.87,209.274,124.059z"/>
	<path d="M240.133,88.203v30.266c0,0.669,0.129,1.15,0.387,1.442c0.137,0.171,0.267,0.278,0.387,0.322
		c0.12,0.043,0.516,0.149,1.185,0.322c0.824,0.188,1.236,0.66,1.236,1.416c0,0.447-0.223,0.808-0.669,1.082
		c-0.327,0.206-0.868,0.309-1.623,0.309h-0.877h-11.486h-0.671c-0.619,0-1.095-0.115-1.43-0.347
		c-0.335-0.232-0.502-0.563-0.502-0.992c0-0.704,0.344-1.168,1.03-1.392c0.566-0.188,0.897-0.304,0.992-0.347
		c0.094-0.043,0.192-0.143,0.296-0.298c0.206-0.274,0.309-0.711,0.309-1.313V92.89c0-0.6-0.103-1.038-0.309-1.313
		c-0.104-0.154-0.202-0.253-0.296-0.296c-0.095-0.043-0.426-0.16-0.992-0.349c-0.687-0.223-1.03-0.688-1.03-1.39
		c0-0.431,0.167-0.761,0.502-0.992c0.335-0.232,0.811-0.348,1.43-0.348h0.671H240.133z M242.272,106.955v-2.987
		c1.012-0.482,1.755-1.001,2.227-1.56c0.472-0.558,0.821-1.317,1.043-2.28c0.139-0.652,0.317-1.103,0.542-1.352
		c0.224-0.248,0.541-0.372,0.952-0.372c0.551,0,0.927,0.214,1.134,0.643c0.12,0.223,0.181,0.73,0.181,1.521v9.813
		c0,0.808-0.091,1.364-0.271,1.673c-0.182,0.31-0.512,0.465-0.992,0.465c-0.395,0-0.704-0.12-0.928-0.361
		c-0.223-0.24-0.403-0.644-0.541-1.21c-0.309-1.186-0.729-2.096-1.261-2.73C243.826,107.582,243.13,107.161,242.272,106.955z
		 M242.399,88.203h10.381v8.989c0,0.583-0.103,1.005-0.308,1.262c-0.207,0.258-0.543,0.387-1.006,0.387
		c-0.344,0-0.614-0.09-0.811-0.271c-0.198-0.18-0.366-0.485-0.504-0.914c-0.256-0.841-0.592-1.614-1.004-2.318
		c-0.412-0.705-0.876-1.306-1.391-1.804c-0.704-0.686-1.478-1.21-2.318-1.571c-0.842-0.359-1.854-0.608-3.04-0.746V88.203z"/>
	<path d="M270.013,88.203v30.266c0,0.669,0.129,1.15,0.388,1.442c0.136,0.171,0.265,0.278,0.386,0.322
		c0.119,0.043,0.515,0.149,1.184,0.322c0.824,0.188,1.237,0.66,1.237,1.416c0,0.447-0.223,0.808-0.67,1.082
		c-0.326,0.206-0.867,0.309-1.622,0.309h-0.877h-11.487h-0.671c-0.618,0-1.094-0.115-1.429-0.347
		c-0.335-0.232-0.502-0.563-0.502-0.992c0-0.704,0.344-1.168,1.03-1.392c0.566-0.188,0.897-0.304,0.991-0.347
		s0.192-0.143,0.296-0.298c0.206-0.274,0.31-0.711,0.31-1.313V92.89c0-0.6-0.104-1.038-0.31-1.313
		c-0.104-0.154-0.202-0.253-0.296-0.296s-0.425-0.16-0.991-0.349c-0.687-0.223-1.03-0.688-1.03-1.39
		c0-0.431,0.167-0.761,0.502-0.992c0.335-0.232,0.811-0.348,1.429-0.348h0.671H270.013z M272.151,106.955v-2.987
		c1.013-0.482,1.755-1.001,2.228-1.56c0.472-0.558,0.82-1.317,1.043-2.28c0.138-0.652,0.318-1.103,0.542-1.352
		c0.223-0.248,0.54-0.372,0.952-0.372c0.55,0,0.927,0.214,1.134,0.643c0.119,0.223,0.181,0.73,0.181,1.521v9.813
		c0,0.808-0.091,1.364-0.271,1.673c-0.181,0.31-0.512,0.465-0.993,0.465c-0.395,0-0.704-0.12-0.927-0.361
		c-0.223-0.24-0.403-0.644-0.541-1.21c-0.31-1.186-0.73-2.096-1.262-2.73C273.705,107.582,273.01,107.161,272.151,106.955z
		 M272.279,88.203h10.382v8.989c0,0.583-0.104,1.005-0.31,1.262c-0.206,0.258-0.542,0.387-1.005,0.387
		c-0.345,0-0.615-0.09-0.812-0.271c-0.197-0.18-0.365-0.485-0.503-0.914c-0.257-0.841-0.592-1.614-1.005-2.318
		c-0.411-0.705-0.875-1.306-1.391-1.804c-0.704-0.686-1.477-1.21-2.317-1.571c-0.842-0.359-1.855-0.608-3.04-0.746V88.203z"/>
</g>
</svg>
