<?xml version="1.0" encoding="utf-8"?>
<!-- Generator: Adobe Illustrator 16.0.0, SVG Export Plug-In . SVG Version: 6.00 Build 0)  -->
<!DOCTYPE svg PUBLIC "-//W3C//DTD SVG 1.0//EN" "http://www.w3.org/TR/2001/REC-SVG-20010904/DTD/svg10.dtd">
<svg version="1.0" id="Ebene_1" xmlns="http://www.w3.org/2000/svg" xmlns:xlink="http://www.w3.org/1999/xlink" x="0px" y="0px"
	 width="16px" height="16px" viewBox="0 0 16 16" enable-background="new 0 0 16 16" xml:space="preserve">
<path fill-rule="evenodd" clip-rule="evenodd" fill="#005BD7" d="M16.036,12c0,2.209-1.791,4-4,4h-8c-2.209,0-4-1.791-4-4V4
	c0-2.209,1.791-4,4-4h8c2.209,0,4,1.791,4,4V12z"/>
<g>
	<path fill-rule="evenodd" clip-rule="evenodd" fill="#7F0606" d="M11.957,13.41c-0.028,0.033-0.058,0.067-0.086,0.102
		c-0.35,0.053-0.7,0.104-1.051,0.157c-0.512-0.644-1.158-0.798-1.923-0.537c-0.098,0.033-0.205,0.029-0.3-0.006
		c-0.312-0.117-0.598-0.049-0.874,0.107c-0.482,0.272-1.006,0.227-1.527,0.209c-0.299-0.09-0.57-0.209-0.632-0.564
		c0.181-0.149,0.4-0.091,0.588-0.064c0.357,0.049,0.583-0.095,0.761-0.377c0.062-0.098,0.135-0.19,0.209-0.279
		c0.203-0.244,0.454-0.315,0.74-0.171c0.553,0.281,1.107,0.488,1.755,0.383c0.292-0.048,0.587,0.139,0.899,0.134
		c0.155-0.002,0.255,0.147,0.3,0.287c0.134,0.413,0.45,0.493,0.826,0.485C11.764,13.283,11.878,13.306,11.957,13.41z"/>
	<path fill-rule="evenodd" clip-rule="evenodd" fill="#6D0806" d="M6.182,13.326c0.628,0.031,1.242-0.005,1.792-0.366
		c0.068-0.044,0.184-0.092,0.243-0.064c0.562,0.26,1.115-0.044,1.671-0.013c0.361,0.021,0.841,0.41,0.932,0.786
		c-0.255,0.083-0.5,0.205-0.779,0.186C9.932,13.897,9.809,13.945,9.75,13.8c-0.05-0.121,0.057-0.178,0.147-0.225
		c0.238-0.125,0.104-0.222-0.029-0.3C9.691,13.17,9.505,13.23,9.322,13.27c-0.181,0.039-0.259,0.079-0.239,0.329
		c0.019,0.24-0.268,0.091-0.421,0.111c-0.116-0.017-0.23-0.047-0.349-0.019c-0.125,0.026-0.25,0.032-0.375,0.049
		c-0.219,0.081-0.447,0.053-0.672,0.061c-0.138,0.009-0.268-0.027-0.396-0.072c-0.221-0.033-0.411-0.144-0.608-0.236
		C6.206,13.451,6.165,13.402,6.182,13.326z"/>
	<path fill-rule="evenodd" clip-rule="evenodd" fill="#621207" d="M8.643,13.583c0.124,0.017,0.248,0.033,0.374,0.05
		c0.02-0.179-0.173-0.151-0.211-0.273c0.025-0.022,0.051-0.056,0.084-0.072c0.604-0.301,0.955-0.303,1.231-0.009
		c0.076,0.082,0.189,0.155,0.147,0.291c-0.04,0.128-0.164,0.088-0.259,0.105c-0.071,0.014-0.2-0.023-0.159,0.117
		c0.011,0.036,0.125,0.042,0.191,0.063c-0.09,0.055-0.181,0.109-0.271,0.165c-0.144,0-0.287,0-0.431,0
		c-0.173-0.09-0.377-0.024-0.55-0.113C8.685,13.824,8.57,13.746,8.643,13.583z"/>
	<path fill-rule="evenodd" clip-rule="evenodd" fill="#AC0406" d="M13.354,11.486c-0.126,0.123-0.212,0.271-0.268,0.438
		c-0.32,0.326-0.366,0.826-0.716,1.136c-0.407,0.021-0.359-0.296-0.356-0.528c0.004-0.333,0.15-0.646,0.209-0.974
		c0.013-0.07,0.041-0.139,0.06-0.208c0.231-0.888,0.044-1.19-0.851-1.374c-0.142-0.028-0.289-0.041-0.392-0.163
		c-0.138-0.44,0.053-0.877,0.017-1.317c0.063-0.187,0.203-0.273,0.371-0.172c0.908,0.55,1.712,1.201,2.053,2.267
		c0.037,0.18,0.106,0.354,0.083,0.544C13.547,11.283,13.487,11.406,13.354,11.486z"/>
	<path fill-rule="evenodd" clip-rule="evenodd" fill="#990405" d="M11.084,9.826c0.35-0.009,0.708-0.016,1.008,0.189
		c0.497,0.338,0.569,0.719,0.334,1.411c-0.11,0.326-0.218,0.658-0.277,0.997c-0.04,0.229-0.085,0.507,0.224,0.636
		c-0.079,0.188-0.236,0.281-0.415,0.351c-0.116,0-0.232-0.001-0.348-0.001c-0.118-0.085-0.255-0.134-0.387-0.19
		c-0.447-0.188-0.472-0.303-0.145-0.676c0.438-0.455,0.523-1.039,0.594-1.627c0.022-0.196-0.093-0.257-0.271-0.215
		c-0.113,0.027-0.201,0.112-0.313,0.143c-0.066,0.013-0.128,0.003-0.184-0.035c-0.108-0.219,0.011-0.424,0.036-0.634
		c0.029-0.104,0.024-0.218,0.094-0.309C11.05,9.853,11.066,9.839,11.084,9.826z"/>
	<path fill-rule="evenodd" clip-rule="evenodd" fill="#F46943" d="M10.388,3.641c0.087-0.013,0.174-0.027,0.261-0.04l-0.002,0.031
		c-0.016,0.164,0.06,0.218,0.214,0.178c0.16,0.191,0.509,0.124,0.586,0.429c0.005,0.106-0.383-0.009-0.135,0.256
		c0.074,0.08-0.009,0.249-0.108,0.348c-0.103,0.043-0.157-0.004-0.188-0.097c-0.048,0.215,0.175,0.526-0.219,0.622
		c-0.2-0.316-0.152-0.686-0.213-1.048c-0.265,0.014-0.588,0.305-0.752-0.142C9.95,4.044,9.715,3.997,9.755,3.88
		C9.912,3.659,10.229,3.859,10.388,3.641z"/>
	<path fill-rule="evenodd" clip-rule="evenodd" fill="#F29868" d="M9.334,3.787C9.51,3.716,9.686,3.645,9.861,3.574
		c0.176,0.022,0.352,0.044,0.526,0.067c0.065,0.114,0.1,0.222-0.089,0.235c-0.169,0.012-0.34,0.012-0.51,0.017
		C9.602,4.011,9.43,4.06,9.334,3.787z"/>
	<path fill-rule="evenodd" clip-rule="evenodd" fill="#93BC78" d="M6.279,0.98C6.362,0.987,6.446,0.994,6.53,1.001
		c0.429,0.225,0.967,0.212,1.316,0.609c-0.084,0.268-0.276,0.09-0.422,0.104C6.622,1.389,5.792,1.194,4.92,1.213
		C4.775,1.216,4.625,1.229,4.513,1.106C4.414,1.01,4.119,1.248,4.166,0.902c0.324-0.021,0.646,0.061,0.97,0.008
		C5.52,0.891,5.892,1.051,6.279,0.98z"/>
	<path fill-rule="evenodd" clip-rule="evenodd" fill="#7FAC43" d="M7.502,1.603c0.116-0.035,0.226,0.144,0.344,0.008
		c0.063,0.025,0.125,0.051,0.187,0.076c0.275,0.019,0.434,0.131,0.348,0.438c0.027,0.061,0.055,0.121,0.082,0.181
		C8.437,2.48,8.5,2.703,8.229,2.747c-0.07,0.007-0.136-0.006-0.197-0.04C7.841,2.526,7.83,2.243,7.658,2.051
		C7.554,1.92,7.406,1.803,7.502,1.603z"/>
	<path fill-rule="evenodd" clip-rule="evenodd" fill="#B3D18C" d="M5.136,0.911C4.812,1.038,4.488,1.06,4.166,0.902
		c0.002-0.027,0.01-0.052,0.025-0.075c0.227,0,0.454-0.001,0.681-0.002C4.942,0.91,5.043,0.898,5.136,0.911z"/>
	<path fill-rule="evenodd" clip-rule="evenodd" fill="#4E5B08" d="M7.502,1.603C7.57,1.741,7.632,1.882,7.769,1.97
		c0.061,0.113,0.014,0.177-0.097,0.21c-0.66-0.328-1.359-0.53-2.084-0.656C5.43,1.497,5.278,1.464,5.119,1.49
		C4.95,1.502,4.784,1.47,4.615,1.469C4.513,1.461,4.42,1.432,4.353,1.349c-0.13-0.041-0.234-0.086-0.025-0.174
		c0.061-0.025,0.124-0.046,0.185-0.069C5.548,1.036,6.555,1.141,7.502,1.603z"/>
	<path fill-rule="evenodd" clip-rule="evenodd" fill="#8C0307" d="M10.912,10.789c0.058,0,0.114-0.001,0.172-0.001
		c0.396,0.249,0.542,0.708,0.349,1.198c-0.084,0.213-0.154,0.433-0.261,0.637c-0.337,0.235-0.291,0.396,0.097,0.484
		c0.171,0.039,0.282,0.14,0.341,0.302c-0.442-0.003-0.795-0.137-0.926-0.614c-0.022-0.08-0.08-0.215-0.153-0.188
		c-0.396,0.145-0.732-0.207-1.138-0.094c-0.556,0.156-1.054-0.118-1.518-0.378c-0.337-0.188-0.526-0.118-0.712,0.186
		c-0.126,0.208-0.261,0.43-0.446,0.58c-0.249,0.204-0.561-0.029-0.846,0.034c-0.09,0.021-0.196-0.031-0.295-0.05
		c-0.15,0.031-0.196-0.054-0.205-0.182c0.477-0.857,0.948-1.716,1.631-2.438c0.316-0.334,0.505-0.354,0.826-0.019
		c0.288,0.301,0.523,0.621,0.516,1.067c-0.002,0.18,0.092,0.331,0.216,0.464c0.258,0.276,0.546,0.322,0.654-0.126
		c0.103-0.425,0.485-0.474,0.773-0.133c0.085,0.101,0.137,0.223,0.196,0.339c0.058,0.111,0.073,0.287,0.228,0.29
		c0.166,0.003,0.226-0.157,0.279-0.294c0.008-0.039,0.021-0.077,0.035-0.114c0.074-0.196,0.199-0.381,0.148-0.608
		C10.861,11.015,10.803,10.893,10.912,10.789z"/>
	<path fill-rule="evenodd" clip-rule="evenodd" fill="#BC0407" d="M13.36,10.616c-0.257-0.807-0.822-1.364-1.489-1.835
		c-0.128-0.091-0.273-0.148-0.377-0.282c-0.072-0.093-0.184-0.208-0.325-0.069c-0.236-0.038-0.213-0.233-0.219-0.392
		c-0.008-0.241,0.043-0.477,0.121-0.705c0.324-0.467,0.406-0.5,0.822-0.336c0.133,0.157,0.097,0.349,0.104,0.53
		c0.006,0.144-0.008,0.293,0.181,0.337c0.176,0.051,0.319,0.157,0.396,0.315c0.338,0.697,0.73,1.366,1.031,2.082
		C13.571,10.411,13.584,10.596,13.36,10.616z"/>
	<path fill-rule="evenodd" clip-rule="evenodd" fill="#CE2A14" d="M13.36,10.616c0.058-0.118,0.115-0.235,0.173-0.353
		c0.013-0.365-0.271-0.59-0.418-0.878c-0.271-0.532-0.401-1.084-0.33-1.68c0.002-0.213-0.041-0.43,0.057-0.635
		c0.069-0.127,0.19-0.189,0.316-0.244c0.192,0.002,0.219,0.153,0.184,0.273c-0.138,0.466,0.121,0.8,0.349,1.177
		c0.005,0.032,0.042-0.064-0.007-0.033c-0.07-0.133-0.102-0.249,0.113-0.253c0,0.704,0,1.408,0,2.112
		c-0.112,0.351-0.226,0.702-0.338,1.053C13.427,10.976,13.394,10.796,13.36,10.616z"/>
	<path fill-rule="evenodd" clip-rule="evenodd" fill="#D62912" d="M11.177,7.291c0.042,0.38-0.238,0.758-0.008,1.139
		c0.039,0.469-0.054,0.931-0.085,1.396L11.079,9.82c-0.197,0.032-0.271-0.107-0.279-0.253c-0.038-0.63-0.326-1.24-0.16-1.887
		c0.05-0.151,0.045-0.317,0.123-0.46c0.32-0.231,0.156-0.57,0.191-0.865c0.01-0.417,0.005-0.836,0.298-1.181
		c0.055-0.014,0.102,0,0.141,0.042C11.641,5.941,11.388,6.613,11.177,7.291z"/>
	<path fill-rule="evenodd" clip-rule="evenodd" fill="#B30407" d="M10.912,10.789c0.028,0.116,0.056,0.231,0.083,0.348
		c-0.032,0.034-0.072,0.06-0.117,0.075c-0.419-0.012-0.428-0.364-0.532-0.638C10.28,9.9,9.8,9.525,9.172,9.713
		C8.547,9.9,8.012,9.895,7.595,9.305C7.498,9.167,7.3,9.13,7.141,9.063C6.949,8.976,6.843,8.797,6.707,8.652
		C6.331,8.25,6.198,8.232,5.749,8.526c-0.084,0.055-0.163,0.118-0.25,0.169c-0.361,0.16-0.608,0.48-0.954,0.666
		c-0.181,0.098-0.129,0.34-0.206,0.508c-0.057,0.124-0.141,0.238-0.284,0.233c-0.159-0.007-0.212-0.127-0.194-0.278
		c0.122-0.469,0.238-0.942,0.687-1.229C4.88,8.315,5.22,8.046,5.603,7.833C6.241,7.478,6.695,7.482,7.22,7.996
		c0.361,0.353,0.82,0.331,1.225,0.5C8.532,8.532,8.603,8.444,8.677,8.4c0.295-0.176,0.629-0.223,0.959-0.251
		c0.432-0.036,0.65,0.26,0.823,0.595c0.239,0.463,0.37,0.975,0.625,1.431C11.026,10.38,10.97,10.585,10.912,10.789z"/>
	<path fill-rule="evenodd" clip-rule="evenodd" fill="#C40C05" d="M11.084,10.175c-0.377-0.294-0.447-0.766-0.648-1.158
		c-0.162-0.315-0.278-0.75-0.648-0.732C9.335,8.307,8.765,8.232,8.484,8.881C8.378,8.523,8.146,8.504,7.881,8.508
		C7.419,8.514,7.19,8.096,6.848,7.886C6.494,7.669,6.18,7.674,5.832,7.851c-0.444,0.225-0.817,0.55-1.217,0.837
		c-0.164-0.404-0.087-0.591,0.36-0.889c0.037-0.021,0.077-0.035,0.119-0.042C5.306,7.773,5.528,7.815,5.65,7.565
		c0.104-0.149,0.242-0.27,0.356-0.411C6.27,6.82,6.339,6.813,6.656,7.091C6.808,7.225,6.953,7.367,7.11,7.497
		C7.604,7.909,8.152,7.73,8.68,7.645c0.225-0.037,0.402-0.215,0.448-0.48c0.047-0.266,0.215-0.362,0.436-0.19
		c0.325,0.253,0.646,0.489,1.082,0.505c0.067,0.002,0.125,0.07,0.091,0.162c0.061,0.106,0.049,0.21,0.025,0.331
		c-0.065,0.345,0.176,1.667,0.317,1.848C11.081,9.938,11.082,10.057,11.084,10.175z"/>
	<path fill-rule="evenodd" clip-rule="evenodd" fill="#970306" d="M11.172,12.623c0.004-0.157-0.02-0.318,0.061-0.466
		c0.265-0.49,0.149-0.939-0.148-1.369c0.112-0.231,0.307-0.289,0.544-0.257c0.129,0.018,0.246,0.086,0.222,0.218
		C11.726,11.409,11.688,12.104,11.172,12.623z"/>
	<path fill-rule="evenodd" clip-rule="evenodd" fill="#D7280A" d="M13.797,7.99c-0.129,0.086-0.065,0.242-0.132,0.404
		c-0.299-0.414-0.681-0.748-0.429-1.304c0.038-0.086,0.026-0.169-0.046-0.238c-0.27-0.282-0.098-0.573-0.018-0.863
		c0.142-0.209,0.275-0.178,0.381,0.026c0.092,0.179,0.093,0.385,0.136,0.579c0.025,0.087,0.051,0.174,0.076,0.261
		C13.811,7.234,13.831,7.611,13.797,7.99z"/>
	<path fill-rule="evenodd" clip-rule="evenodd" fill="#E3601F" d="M12.567,4.49c0.604,0.442,0.846,1.117,1.133,1.764
		c-0.004,0.114-0.007,0.228-0.011,0.342c-0.082-0.19-0.167-0.379-0.245-0.571c-0.043-0.105-0.097-0.126-0.181-0.044
		c-0.173,0.022-0.192-0.137-0.271-0.227c-0.136-0.397-0.425-0.73-0.492-1.157C12.513,4.555,12.534,4.519,12.567,4.49z"/>
	<path fill-rule="evenodd" clip-rule="evenodd" fill="#F1956F" d="M11.519,3.707c0.113,0.064,0.227,0.129,0.339,0.193
		c0.044,0.151,0.007,0.252-0.166,0.269c-0.268-0.164-0.564-0.242-0.871-0.287c-0.223,0.031-0.212-0.099-0.174-0.25
		C10.943,3.588,11.233,3.623,11.519,3.707z"/>
	<path fill-rule="evenodd" clip-rule="evenodd" fill="#ACC97F" d="M8.025,2.662c0.058-0.001,0.116-0.003,0.174-0.005
		c0.043,0.042,0.076,0.09,0.088,0.149c0.021,0.054,0.003,0.144,0.11,0.122c0.107-0.074,0.214-0.192,0.326-0.009
		c0.008,0.06,0.017,0.119,0.025,0.178C8.77,3.184,8.79,3.271,8.81,3.357c0.044,0.099-0.033,0.146-0.095,0.131
		c-0.276-0.071-0.451,0.09-0.633,0.248C7.89,3.723,7.802,3.595,7.748,3.431C7.738,3.138,7.709,2.838,8.025,2.662z"/>
	<path fill-rule="evenodd" clip-rule="evenodd" fill="#A8C47E" d="M8.109,3.713c0.04-0.362,0.188-0.528,0.555-0.311
		C8.719,3.435,8.772,3.406,8.81,3.357c0.057,0.087,0.114,0.175,0.171,0.263c0.012,0.055,0.023,0.11,0.035,0.166
		C8.798,4.097,8.522,4.147,8.194,3.972C8.121,3.901,8.072,3.821,8.109,3.713z"/>
	<path fill-rule="evenodd" clip-rule="evenodd" fill="#F01408" d="M11.349,5.193c-0.031,0-0.063,0.001-0.093,0.002
		c-0.164-0.086-0.197-0.202-0.081-0.352c0.016-0.125,0.083-0.275,0.037-0.371c-0.149-0.311,0.069-0.239,0.224-0.247
		c0.064-0.068,0.141-0.077,0.225-0.044c0.077,0.026,0.137,0.078,0.193,0.133c0.167,0.121,0.404,0.13,0.523,0.329
		c0.047,0.065,0.092,0.133,0.14,0.199c0.226,0.311,0.247,0.688,0.334,1.043c0.011,0.166-0.018,0.318-0.146,0.438
		c-0.14,0.076-0.204-0.025-0.272-0.117c-0.021-0.038-0.037-0.078-0.049-0.12c-0.016-0.06-0.021-0.121-0.023-0.183
		c-0.025-0.173-0.002-0.381-0.274-0.374c-0.144,0.018-0.248-0.048-0.328-0.159C11.655,5.229,11.519,5.172,11.349,5.193z"/>
	<path fill-rule="evenodd" clip-rule="evenodd" fill="#F23815" d="M9.851,4.152c0.306,0.333,0.517,0.176,0.729-0.207
		c0.228,0.482,0.198,0.951,0.234,1.407c0.002,0.124-0.073,0.191-0.176,0.237c-0.237,0.016-0.431,0.105-0.562,0.316
		c-0.053,0.085-0.094,0.229-0.251,0.133c-0.249-0.71,0.005-1.446,0.501-1.601c-0.237-0.011-0.446,0.27-0.754,0.227
		C9.479,4.393,9.54,4.205,9.851,4.152z"/>
	<path fill-rule="evenodd" clip-rule="evenodd" fill="#F69495" d="M10.637,5.532c0.06-0.06,0.118-0.12,0.177-0.18
		c0.244-0.296-0.051-0.654,0.088-0.975c0.236,0.092,0.121,0.354,0.273,0.465c0.027,0.118,0.054,0.235,0.081,0.352
		c-0.033,0.41-0.205,0.8-0.174,1.219c-0.067,0.06-0.015,0.197-0.141,0.219C10.472,6.362,10.34,5.884,10.637,5.532z"/>
	<path fill-rule="evenodd" clip-rule="evenodd" fill="#F68054" d="M9.851,4.152C9.726,4.304,9.563,4.438,9.598,4.667
		C9.622,4.706,9.62,4.742,9.587,4.775C9.545,4.784,9.506,4.778,9.47,4.755c-0.021-0.02-0.035-0.047-0.057-0.065
		c-0.142-0.128,0.08-0.437-0.194-0.467C8.945,4.191,8.667,4.249,8.483,4.504c-0.034,0.048-0.08,0.083-0.139,0.1
		C8.093,4.47,8.146,4.229,8.131,4.011c0.009-0.047,0.031-0.086,0.065-0.12c0.3,0.174,0.551-0.029,0.818-0.105
		c0.106,0,0.213,0,0.319,0C9.458,3.94,9.636,3.861,9.789,3.893c0.117,0.144,0.336,0.009,0.471,0.15
		C10.138,4.205,9.978,4.113,9.851,4.152z"/>
	<path fill-rule="evenodd" clip-rule="evenodd" fill="#F9AFAB" d="M11.695,4.257c-0.087-0.01-0.173-0.021-0.26-0.031
		c-0.203-0.118-0.488-0.089-0.615-0.344c0.363-0.115,0.69-0.105,0.912,0.266C11.736,4.19,11.725,4.227,11.695,4.257z"/>
	<path fill-rule="evenodd" clip-rule="evenodd" fill="#ED7C43" d="M11.695,4.257c0.012-0.036,0.024-0.073,0.036-0.109
		c0.043-0.083,0.085-0.166,0.127-0.248c0.063,0.023,0.126,0.046,0.189,0.069c0.069,0.142,0.206,0.199,0.335,0.267
		c0.062,0.085,0.123,0.169,0.185,0.254c-0.002,0.034-0.004,0.067-0.006,0.101c-0.1,0.058-0.058,0.209-0.172,0.257
		c-0.028-0.06-0.057-0.12-0.085-0.179c-0.121-0.19-0.247-0.371-0.518-0.249C11.719,4.387,11.683,4.335,11.695,4.257z"/>
	<path fill-rule="evenodd" clip-rule="evenodd" fill="#A8C47E" d="M8.724,2.919c-0.2-0.119-0.161,0.146-0.271,0.17
		C8.361,3.011,8.428,2.776,8.2,2.833c0-0.059,0-0.117,0-0.176c0.232-0.009,0.125-0.272,0.264-0.352
		C8.583,2.496,8.742,2.67,8.724,2.919z"/>
	<path fill-rule="evenodd" clip-rule="evenodd" fill="#CE2302" d="M3.505,8.739C3.548,8.526,3.548,8.313,3.517,8.1
		c0.07-0.619-0.001-1.249,0.161-1.863C3.75,5.967,3.82,5.707,3.987,5.481c0.161,0.06,0.293,0.217,0.482,0.172
		c0.391-0.091,0.598,0.122,0.756,0.43c0.047,0.09,0.1,0.191,0.078,0.286C5.182,6.877,5.153,7.397,5.07,7.911
		C4.994,8.002,4.883,7.973,4.787,7.99C4.103,8.112,3.897,8.347,3.864,9.028C3.852,9.298,3.888,9.59,3.622,9.78
		c-0.121-0.02-0.121-0.02-0.167-0.212C3.532,9.295,3.505,9.016,3.505,8.739z"/>
	<path fill-rule="evenodd" clip-rule="evenodd" fill="#DB2704" d="M5.045,5.98C4.873,5.748,4.713,5.557,4.354,5.697
		c-0.201,0.079-0.438-0.02-0.44-0.325c0.019-0.188,0.093-0.345,0.261-0.448c0.099-0.064,0.2,0.064,0.298-0.006
		C4.555,4.87,4.612,4.794,4.681,4.731c0.14-0.121,0.236-0.077,0.302,0.081C5.032,5.2,5.267,5.578,5.045,5.98z"/>
	<path fill-rule="evenodd" clip-rule="evenodd" fill="#EC4E1B" d="M4.176,4.834c0.335-0.171,0.487-0.566,0.853-0.7
		C5.144,4.105,5.246,3.969,5.38,4.09C5.718,4.481,5.245,4.58,5.123,4.805C5.031,4.838,4.949,4.821,4.877,4.757
		C4.763,4.68,4.782,4.85,4.708,4.848C4.57,4.829,4.513,4.889,4.534,5.026c-0.216,0.302-0.241-0.064-0.36-0.103
		C4.175,4.894,4.176,4.864,4.176,4.834z"/>
	<path fill-rule="evenodd" clip-rule="evenodd" fill="#AC0704" d="M3.63,10.093c-0.016-0.115-0.032-0.23-0.048-0.345
		c0.134-0.071,0.243-0.036,0.333,0.079c0.013,0.086,0.018,0.193,0.129,0.196c0.117,0.003,0.196-0.102,0.198-0.197
		C4.252,9,5.019,8.953,5.488,8.602C5.547,8.723,5.5,8.84,5.436,8.928c-0.438,0.6-0.507,1.335-0.748,2.006
		c-0.099,0.277-0.233,0.386-0.508,0.232c-0.065-0.143-0.164,0.045-0.271-0.375c0.018-0.102-0.027-0.184-0.086-0.26
		C3.806,10.364,3.727,10.225,3.63,10.093z"/>
	<path fill-rule="evenodd" clip-rule="evenodd" fill="#970306" d="M5.388,12.718c-0.254-0.222-0.458-0.482-0.622-0.776
		c0.055-0.698,0.19-1.373,0.468-2.023c0.147-0.344,0.32-0.645,0.617-0.88c0.411-0.326,0.614-0.335,1.046-0.018
		c0.472,0.346,0.882,0.761,1.284,1.182c0.192,0.201,0.398,0.278,0.664,0.221c0.085-0.019,0.173-0.023,0.261-0.028
		c0.81-0.049,0.846-0.022,1.197,0.705c0.131,0.271,0.232,0.571,0.519,0.736c-0.026,0.082-0.042,0.171-0.083,0.245
		c-0.075,0.139-0.158,0.308-0.334,0.304c-0.189-0.005-0.233-0.188-0.286-0.341c-0.067-0.192-0.145-0.38-0.285-0.533
		c-0.099-0.106-0.227-0.127-0.36-0.097c-0.128,0.028-0.132,0.137-0.137,0.24c-0.01,0.21-0.039,0.431-0.262,0.505
		c-0.236,0.079-0.41-0.085-0.571-0.237c-0.151-0.142-0.322-0.308-0.291-0.513c0.085-0.549-0.303-0.847-0.581-1.203
		c-0.117-0.151-0.268-0.165-0.402-0.004c-0.387,0.463-0.853,0.884-1.131,1.405c-0.161,0.302-0.281,0.64-0.479,0.935
		C5.559,12.631,5.502,12.707,5.388,12.718z"/>
	<path fill-rule="evenodd" clip-rule="evenodd" fill="#A60405" d="M10.821,11.836c-0.152,0.092-0.271,0.077-0.354-0.098
		c-0.087-0.184-0.182-0.364-0.272-0.547c-0.345-0.696-0.558-0.813-1.34-0.626c-0.298,0.071-0.494,0.007-0.695-0.205
		C7.742,9.92,7.307,9.497,6.832,9.117C6.417,8.786,5.896,8.864,5.606,9.474c-0.301,0.634-0.739,1.263-0.594,2.044
		c0.035,0.19-0.08,0.331-0.246,0.423c-0.123-0.166-0.224-0.354-0.42-0.45c-0.001-0.126-0.068-0.208-0.174-0.265
		c-0.025-0.024-0.032-0.045-0.02-0.063c0.012-0.017,0.022-0.025,0.033-0.025c0.281,0.078,0.293-0.039,0.379-0.307
		c0.244-0.764,0.383-1.584,0.924-2.228c0.607-0.593,0.884-0.582,1.409,0.059C6.979,8.76,7.014,8.9,7.15,8.952
		c0.419,0.245,0.702,0.643,1.07,0.946c0.173,0.142,0.33,0.228,0.534,0.052c0.859-0.742,1.4-0.223,1.718,0.576
		c0.096,0.24,0.071,0.565,0.438,0.612c0.079,0.22-0.057,0.408-0.087,0.612C10.822,11.778,10.821,11.808,10.821,11.836z"/>
	<path fill-rule="evenodd" clip-rule="evenodd" fill="#990405" d="M10.822,11.75c-0.025-0.212,0.036-0.411,0.087-0.612
		c0.029,0,0.058-0.001,0.086-0.001C11.09,11.384,10.915,11.555,10.822,11.75z"/>
	<path fill-rule="evenodd" clip-rule="evenodd" fill="#D00705" d="M11.349,5.193c0.171-0.346,0.341-0.148,0.469,0.022
		c0.085,0.113,0.115,0.264,0.301,0.243c0.045,0.025,0.079,0.062,0.103,0.109c0.107,0.542,0.063,1.046-0.354,1.462
		c-0.313-0.132-0.486,0.105-0.69,0.262C11.124,6.582,11.443,5.904,11.349,5.193z"/>
	<path fill-rule="evenodd" clip-rule="evenodd" fill="#C81105" d="M12.918,7.731c-0.008,0.724,0.015,1.433,0.548,2.019
		c0.103,0.112,0.187,0.324,0.067,0.514c-0.364-0.59-0.668-1.212-0.965-1.837c-0.092-0.195-0.172-0.412-0.437-0.438
		c-0.154-0.231-0.287-0.465-0.081-0.736c0.176-0.173,0.183-0.422,0.28-0.631c0.024-0.034,0.057-0.058,0.095-0.074
		c0.042-0.007,0.082-0.003,0.121,0.011c0.176,0.131,0.175,0.33,0.137,0.502C12.622,7.346,12.719,7.55,12.918,7.731z"/>
	<path fill-rule="evenodd" clip-rule="evenodd" fill="#D11F14" d="M12.136,7.298c-0.271,0.229,0.089,0.46-0.004,0.69
		c-0.259-0.025-0.262-0.213-0.261-0.406c0.002-0.185-0.002-0.369-0.004-0.554c0.166-0.481,0.353-0.958,0.266-1.484
		c0.25-0.026,0.176,0.276,0.341,0.336c0,0.064,0.001,0.129,0.001,0.194c-0.097,0.162,0.026,0.358-0.078,0.519l0.002-0.004
		C12.289,6.818,12.076,7.008,12.136,7.298z"/>
	<path fill-rule="evenodd" clip-rule="evenodd" fill="#D7280A" d="M12.918,7.731c-0.352-0.047-0.518-0.184-0.369-0.58
		c0.063-0.165,0.088-0.396-0.075-0.566c-0.073-0.147-0.117-0.292,0.019-0.431c0.058,0.058,0.115,0.115,0.173,0.173
		c0.38,0.145,0.434,0.29,0.258,0.697C12.921,7.261,12.919,7.496,12.918,7.731z"/>
	<path fill-rule="evenodd" clip-rule="evenodd" fill="#EB4A34" d="M12.923,7.025c0.006-0.267-0.002-0.528-0.258-0.697
		c0.028-0.146,0.056-0.293,0.084-0.44c0.177,0.064,0.262-0.058,0.352-0.172c0.055,0.088,0.108,0.176,0.163,0.265
		c-0.031,0.291-0.126,0.575-0.073,0.873C13.167,7.013,13.056,7.035,12.923,7.025z"/>
	<path fill-rule="evenodd" clip-rule="evenodd" fill="#D21704" d="M10.736,7.641c-0.468-0.123-0.952-0.187-1.29-0.609
		c-0.12-0.15-0.18,0.001-0.199,0.131c-0.07,0.471-0.373,0.653-0.82,0.652c-0.058,0-0.124-0.017-0.172,0.004
		C7.51,8.139,7.038,7.688,6.6,7.209C6.354,6.942,6.218,6.958,6.097,7.287c-0.142-0.11-0.146-0.304-0.265-0.431
		c-0.225-0.239-0.195-0.454,0.08-0.635c0.458-0.257,0.877-0.145,1.29,0.344c0.042,0.047,0.083,0.095,0.127,0.14
		C7.469,6.851,7.644,6.956,7.78,7.11c0.137,0.156,0.331,0.238,0.532,0.274c0.433,0.077,0.689-0.191,0.606-0.617
		c-0.017-0.085-0.04-0.169-0.043-0.257C8.992,6.148,9.127,6.08,9.357,6.333c0.266,0.292,0.649,0.431,0.881,0.757
		c0.115,0.162,0.256,0.162,0.385,0c0.061-0.031,0.121-0.032,0.183-0.003c0.024,0.021,0.035,0.045,0.033,0.071
		c-0.002,0.027-0.007,0.041-0.013,0.041C10.803,7.347,10.871,7.515,10.736,7.641z"/>
	<path fill-rule="evenodd" clip-rule="evenodd" fill="#E04B3A" d="M10.826,7.198c-0.002-0.027-0.004-0.054-0.008-0.081
		c-0.081-0.092-0.106-0.195-0.066-0.313s0.173-0.131,0.243-0.215c0.029-0.059,0.059-0.118,0.087-0.176
		c0,0.21-0.001,0.42,0.001,0.631C11.085,7.244,11.004,7.302,10.826,7.198z"/>
	<path fill-rule="evenodd" clip-rule="evenodd" fill="#C21301" d="M3.915,9.827C3.804,9.801,3.693,9.774,3.582,9.748
		C3.576,9.716,3.57,9.685,3.564,9.653c0.045-0.297,0.097-0.59,0.093-0.894C3.648,8.039,4.272,7.598,4.972,7.81
		c0.029-0.024,0.056-0.022,0.08,0.007c-0.267,0.229-0.473,0.49-0.438,0.871C4.299,8.955,4.061,9.26,4.071,9.704
		C4.073,9.784,3.987,9.811,3.915,9.827z"/>
	<path fill-rule="evenodd" clip-rule="evenodd" fill="#AC0704" d="M10.472,10.525c-0.108-0.152-0.205-0.315-0.328-0.455
		c-0.448-0.506-0.801-0.541-1.267-0.058c-0.273,0.284-0.458,0.286-0.709,0.008C7.838,9.655,7.49,9.308,7.15,8.952
		c0.271,0.069,0.487,0.194,0.675,0.425c0.21,0.258,0.498,0.438,0.877,0.3c0.161-0.059,0.338-0.068,0.506-0.108
		C9.846,9.417,10.414,9.847,10.472,10.525z"/>
	<path fill-rule="evenodd" clip-rule="evenodd" fill="#DD452F" d="M5.052,7.817C5.025,7.814,4.999,7.812,4.972,7.81
		C4.879,7.342,4.856,6.879,5.089,6.439C5.176,6.274,5.068,6.132,5.045,5.98C5.015,5.569,4.86,5.175,4.877,4.757
		c0.079,0,0.158,0,0.237,0c0.075-0.076,0.148-0.057,0.22,0.005c0.088,0.199,0.129,0.465,0.459,0.333
		C5.901,5.079,6.007,5.082,6.11,5.12c0.372,0.342,0.351,0.679-0.058,0.965C6.018,6.07,5.995,6.039,5.964,6.018
		C5.994,6.042,6.017,6.073,6.049,6.1c0.017,0.081,0.016,0.157-0.028,0.228c-0.268,0.128-0.413,0.257-0.04,0.452
		c0.218,0.114,0.09,0.335,0.116,0.508c-0.141,0.089-0.26,0.2-0.348,0.344C5.571,7.782,5.367,7.843,5.135,7.809
		C5.107,7.81,5.08,7.813,5.052,7.817z"/>
	<path fill-rule="evenodd" clip-rule="evenodd" fill="#C21301" d="M5.135,7.809C5.323,7.69,5.537,7.666,5.749,7.631
		C5.602,7.89,5.415,8.009,5.135,7.809z"/>
	<path fill-rule="evenodd" clip-rule="evenodd" fill="#F89B99" d="M13.101,5.716c-0.002,0.028-0.004,0.056-0.006,0.083
		c-0.008,0.135,0.061,0.328-0.104,0.372c-0.193,0.051-0.12-0.219-0.241-0.283c-0.153-0.335-0.147-0.725-0.359-1.04
		c0.084-0.068-0.119-0.328,0.172-0.257C12.737,4.968,12.977,5.314,13.101,5.716z"/>
	<path fill-rule="evenodd" clip-rule="evenodd" fill="#F07B45" d="M6.799,3.519c0.255-0.233,0.565-0.137,0.858-0.145
		c0.049,0.024,0.098,0.047,0.147,0.071c0.102,0.089,0.203,0.179,0.305,0.269c0.029,0.059,0.058,0.119,0.087,0.178
		C8.195,3.921,8.194,3.95,8.192,3.979C8.028,4.034,7.887,3.842,7.718,3.937C7.359,3.988,7.047,3.721,6.686,3.784
		C6.623,3.652,6.726,3.592,6.799,3.519z"/>
	<path fill-rule="evenodd" clip-rule="evenodd" fill="#94BF4E" d="M8.2,2.833c0.267-0.095,0.282,0.059,0.253,0.256
		C8.267,3.104,8.105,3.095,8.2,2.833z"/>
	<path fill-rule="evenodd" clip-rule="evenodd" fill="#F23F0F" d="M11.787,4.42c0.047-0.099,0.094-0.197,0.152-0.321
		c0.176,0.167,0.32,0.334,0.365,0.57C12.192,4.46,11.903,4.62,11.787,4.42z"/>
	<path fill-rule="evenodd" clip-rule="evenodd" fill="#EE4D3D" d="M12.474,5.881c-0.294,0.07-0.213-0.239-0.341-0.336
		c-0.005-0.029-0.01-0.058-0.015-0.087c0.025-0.086,0.058-0.179,0.16-0.072C12.408,5.522,12.49,5.684,12.474,5.881z"/>
	<path fill-rule="evenodd" clip-rule="evenodd" fill="#DB463F" d="M12.492,6.155c-0.007,0.144-0.013,0.287-0.019,0.431
		c-0.025,0.003-0.052,0.006-0.077,0.008c-0.085-0.19-0.169-0.379,0.078-0.52C12.479,6.102,12.484,6.128,12.492,6.155z"/>
	<path fill-rule="evenodd" clip-rule="evenodd" fill="#E9514B" d="M10.995,6.59c-0.004,0.115-0.068,0.17-0.179,0.18
		c-0.404,0.104-0.854-0.193-0.995-0.657C9.834,6.096,9.847,6.08,9.859,6.063c0.163-0.317,0.28-0.703,0.777-0.531
		C10.424,5.997,10.75,6.28,10.995,6.59z"/>
	<path fill-rule="evenodd" clip-rule="evenodd" fill="#F22B0C" d="M9.585,4.743c0.002-0.025,0.006-0.051,0.013-0.075
		c0.19-0.373,0.556-0.222,0.85-0.281c0.071-0.014,0.102,0.044,0.101,0.107c-0.001,0.06-0.023,0.141-0.091,0.116
		c-0.476-0.176-0.414,0.247-0.515,0.467C9.8,5.391,9.875,5.733,9.859,6.063c0,0-0.001,0.003-0.001,0.003
		C9.794,6.117,9.847,6.24,9.736,6.262C9.643,6.241,9.604,6.168,9.574,6.088c-0.023-0.18-0.189-0.349-0.086-0.536
		C9.58,5.385,9.485,5.359,9.367,5.317C9.222,5.265,9.054,5.248,8.964,5.093C9.056,4.773,9.443,4.975,9.585,4.743z"/>
	<path fill-rule="evenodd" clip-rule="evenodd" fill="#F7BBC1" d="M8.374,4.577c0.073-0.335,0.819-0.667,1.101-0.49
		C9.583,4.154,9.608,4.245,9.52,4.337C9.39,4.474,9.48,4.609,9.504,4.746c0.049,0.165-0.066,0.214-0.185,0.22
		C9.144,4.974,8.979,5.038,8.813,5.06C8.482,5.104,8.359,4.887,8.374,4.577z"/>
	<path fill-rule="evenodd" clip-rule="evenodd" fill="#F74D12" d="M8.374,4.577C8.671,5.05,9.075,5.11,9.504,4.746
		C9.531,4.75,9.559,4.749,9.585,4.743C9.574,5.183,9.14,4.909,8.982,5.101C8.862,5.292,8.704,5.286,8.528,5.19
		C8.38,5.071,8.257,4.934,8.175,4.76C8.12,4.645,8.134,4.824,8.09,4.783C8.051,4.786,8.017,4.774,7.987,4.75
		c-0.12-0.19-0.101-0.427-0.213-0.618C7.742,4.055,7.718,3.977,7.751,3.894c0.125-0.177,0.125-0.177,0.441,0.086
		C8.366,4.145,8.193,4.414,8.374,4.577z"/>
	<path fill-rule="evenodd" clip-rule="evenodd" fill="#F76D48" d="M4.534,5.026c-0.23-0.043-0.159-0.155-0.052-0.259
		c0.118-0.115,0.201-0.088,0.226,0.081C4.65,4.907,4.592,4.967,4.534,5.026z"/>
	<path fill-rule="evenodd" clip-rule="evenodd" fill="#E95E1F" d="M6.799,3.519c-0.024,0.097-0.048,0.193-0.073,0.29
		C6.965,4.012,6.69,4.096,6.631,4.231C6.546,4.341,6.579,4.505,6.46,4.6C6.354,4.643,6.258,4.609,6.165,4.558
		C6.091,4.509,6.01,4.443,6.009,4.36C6.007,4.037,5.831,4.059,5.614,4.142C5.517,4.172,5.419,4.203,5.32,4.151
		c-0.091-0.1-0.195,0.015-0.291-0.017c0.086-0.152,0.278-0.133,0.39-0.243C5.76,3.811,6.127,3.883,6.455,3.718
		C6.569,3.652,6.684,3.585,6.799,3.519z"/>
	<path fill-rule="evenodd" clip-rule="evenodd" fill="#F7A5A3" d="M5.32,4.151C5.407,4.11,5.495,4.07,5.582,4.029
		c0.476-0.032,0.476-0.032,0.35,0.29C5.688,4.342,5.663,4.5,5.703,4.696c-0.004,0.042-0.02,0.08-0.047,0.113
		C5.548,4.892,5.438,4.95,5.311,4.845c-0.039-0.09-0.129-0.062-0.197-0.087c0.035-0.126-0.016-0.313,0.161-0.347
		C5.558,4.355,5.246,4.225,5.32,4.151z"/>
	<path fill-rule="evenodd" clip-rule="evenodd" fill="#DB463F" d="M12.136,7.298c-0.248-0.085-0.209-0.245-0.083-0.396
		c0.099-0.118,0.229-0.209,0.346-0.313C12.345,6.838,12.437,7.142,12.136,7.298z"/>
	<path fill-rule="evenodd" clip-rule="evenodd" fill="#D62614" d="M8.985,6.504c0.023,0.083,0.072,0.168,0.066,0.25
		C9.038,6.938,9.289,7.15,9.028,7.301C8.772,7.45,8.521,7.638,8.18,7.501C7.79,7.346,7.53,7.038,7.236,6.768
		C7.31,6.674,7.424,6.656,7.505,6.71c0.387,0.259,0.4-0.012,0.419-0.283c0.012-0.039,0.03-0.075,0.052-0.108
		c0.083-0.091,0.185-0.151,0.298-0.196C8.478,6.17,8.683,6.07,8.888,6.124C8.981,6.235,8.854,6.403,8.985,6.504z"/>
	<path fill-rule="evenodd" clip-rule="evenodd" fill="#E01E02" d="M6.014,6.067c0.303-0.271,0.327-0.565,0.073-0.883
		C6.025,5.105,6.021,5.023,6.072,4.937C6.26,4.835,6.374,4.955,6.47,5.085c0.086,0.116,0.152,0.247,0.288,0.317
		C7.101,5.636,7.19,5.993,7.231,6.375c0.012,0.066,0.012,0.133-0.005,0.199C7.211,6.617,7.185,6.652,7.147,6.679
		c-0.168-0.3-0.471-0.375-0.765-0.48c-0.18-0.064-0.263,0.026-0.361,0.129C6.019,6.241,6.017,6.154,6.014,6.067L6.014,6.067z"/>
	<path fill-rule="evenodd" clip-rule="evenodd" fill="#D61806" d="M8.985,6.504C8.807,6.425,8.812,6.3,8.899,6.155
		c0.017-0.129,0.094-0.204,0.213-0.243c0.212-0.026,0.408,0.001,0.572,0.154c0.029,0.06,0.058,0.119,0.087,0.179
		c0.347,0.236,0.656,0.509,0.876,0.873c-0.112,0.345-0.289,0.408-0.475,0.117C9.928,6.849,9.469,6.732,9.211,6.36
		C9.055,6.135,8.996,6.346,8.985,6.504z"/>
	<path fill-rule="evenodd" clip-rule="evenodd" fill="#E23A23" d="M7.147,6.679c0.004-0.033,0.008-0.065,0.012-0.098
		C7.43,6.45,7.699,6.313,8.016,6.407C8.018,6.478,8.03,6.55,8.021,6.62C8.003,6.768,8.103,6.966,7.946,7.053
		C7.798,7.135,7.707,6.951,7.598,6.871C7.491,6.792,7.369,6.759,7.236,6.768C7.207,6.738,7.177,6.708,7.147,6.679z"/>
	<path fill-rule="evenodd" clip-rule="evenodd" fill="#D82B1C" d="M10.647,7.117c-0.391-0.192-0.594-0.573-0.876-0.873
		C9.8,6.185,9.829,6.125,9.858,6.066c0.217,0.374,0.511,0.644,0.958,0.703c0.001,0.116,0.001,0.232,0.002,0.348
		C10.762,7.118,10.704,7.117,10.647,7.117z"/>
	<path fill-rule="evenodd" clip-rule="evenodd" fill="#F26657" d="M6.108,4.935c-0.007,0.083-0.014,0.167-0.021,0.25
		c-0.116,0.005-0.23,0.009-0.346,0.014c-0.3-0.1,0.019-0.315-0.084-0.452c-0.005-0.03-0.011-0.06-0.016-0.09
		c0.003-0.152,0.054-0.272,0.211-0.324C6.159,3.878,5.685,4.12,5.582,4.029c0.202-0.125,0.413-0.035,0.706-0.071
		C6.122,4.164,6.001,4.325,6.193,4.493C6.234,4.653,6.251,4.81,6.108,4.935z"/>
	<path fill-rule="evenodd" clip-rule="evenodd" fill="#E91405" d="M5.657,4.747c0.104,0.027,0.32-0.022,0.13,0.2
		C5.726,5.018,5.628,5.092,5.742,5.198c-0.389,0.108-0.49,0.026-0.431-0.354C5.426,4.812,5.542,4.779,5.657,4.747z"/>
	<path fill-rule="evenodd" clip-rule="evenodd" fill="#EE6960" d="M6.014,6.067c-0.272-0.09-0.178-0.266-0.107-0.494
		C6.078,5.745,5.991,5.919,6.014,6.067L6.014,6.067z"/>
	<path fill-rule="evenodd" clip-rule="evenodd" fill="#F7CACC" d="M6.537,4.147c0.059-0.116,0.318-0.119,0.19-0.338
		c0.181-0.16,0.338-0.345,0.567-0.021c0.052,0.074,0.317-0.01,0.458,0.106c0.034,0.054,0.068,0.107,0.102,0.161
		c0.052,0.061,0.028,0.138,0.045,0.207c0.113,0.448,0.11,0.462-0.315,0.345c-0.227-0.063-0.24,0.173-0.381,0.218
		c-0.168,0.08-0.322,0.091-0.434-0.09C6.726,4.6,6.635,4.701,6.565,4.695C6.525,4.676,6.5,4.647,6.49,4.604
		C6.517,4.452,6.451,4.292,6.537,4.147z"/>
	<path fill-rule="evenodd" clip-rule="evenodd" fill="#EB1004" d="M9.685,6.065C9.473,6.092,9.273,6.029,9.073,5.979
		C8.807,6.018,8.479,5.773,8.288,6.152c-0.016,0.165-0.132,0.18-0.262,0.174C7.971,6.294,7.94,6.243,7.919,6.184
		c-0.038-0.29-0.146-0.521-0.478-0.563c-0.04-0.022-0.072-0.051-0.1-0.085C7.242,5.331,7.367,5.24,7.53,5.181
		c0.137-0.05,0.284-0.048,0.428-0.058c0.197-0.009,0.39-0.161,0.592-0.021c0.145,0.115,0.289,0.021,0.433-0.001
		c0.154,0.032,0.313,0.051,0.462,0.098C9.62,5.254,9.848,5.29,9.601,5.558C9.438,5.735,9.772,5.875,9.685,6.065z"/>
	<path fill-rule="evenodd" clip-rule="evenodd" fill="#F34F35" d="M8.022,5.279C7.87,5.281,7.716,5.278,7.564,5.289
		C7.405,5.3,7.333,5.375,7.418,5.537C7.3,5.824,7.359,6.167,7.142,6.423C7.064,6.071,6.973,5.725,6.705,5.459
		C6.399,5.23,6.306,4.927,6.438,4.59C6.468,4.441,6.4,4.271,6.537,4.147c0,0.174,0.001,0.347,0.001,0.521
		c0.15,0.11,0.197,0.345,0.43,0.351C7.01,5.008,7.058,5,7.082,4.966c0.216-0.304,0.452-0.51,0.821-0.205
		c0.025,0.021,0.082-0.002,0.124-0.008c0.026,0.001,0.052,0.002,0.079,0.005C8.307,4.968,8.132,5.118,8.022,5.279z"/>
	<path fill-rule="evenodd" clip-rule="evenodd" fill="#F68078" d="M8.026,4.753C7.998,4.867,7.944,4.96,7.825,4.85
		C7.5,4.546,7.33,4.686,7.213,5.041C7.179,5.145,7.088,5.193,6.977,5.195c-0.083-0.204,0.074-0.308,0.18-0.434
		c0.166-0.382,0.39-0.471,0.695-0.086c0.125-0.242-0.063-0.431,0.001-0.621C8.018,4.261,8.021,4.507,8.026,4.753z"/>
	<path fill-rule="evenodd" clip-rule="evenodd" fill="#F42808" d="M8.022,5.279c0.033-0.173,0.116-0.338,0.083-0.521
		C8.147,4.719,8.067,4.536,8.189,4.63c0.151,0.117,0.243,0.312,0.36,0.472C8.374,5.161,8.198,5.22,8.022,5.279z"/>
	<path fill-rule="evenodd" clip-rule="evenodd" fill="#F2330E" d="M6.438,4.59c0.005,0.315,0.015,0.63,0.267,0.87
		C6.556,5.466,6.467,5.404,6.428,5.254c-0.042-0.164-0.166-0.26-0.32-0.319c0.013-0.151-0.05-0.316,0.086-0.442
		C6.275,4.525,6.356,4.557,6.438,4.59z"/>
	<path fill-rule="evenodd" clip-rule="evenodd" fill="#F1C2C8" d="M5.853,4.333c-0.07,0.108-0.141,0.216-0.211,0.324
		C5.48,4.485,5.549,4.319,5.694,4.204C5.796,4.123,5.826,4.254,5.853,4.333z"/>
	<path fill-rule="evenodd" clip-rule="evenodd" fill="#F1654F" d="M7.142,6.423c0.05-0.309-0.125-0.687,0.276-0.887
		c0.026,0.002,0.053,0.006,0.079,0.012C7.779,5.66,7.823,5.973,8.014,6.162c0.004,0.055,0.008,0.11,0.013,0.165
		C8.021,6.353,8.017,6.38,8.016,6.407C7.737,6.498,7.469,6.645,7.159,6.581C7.154,6.528,7.148,6.476,7.142,6.423z"/>
	<path fill-rule="evenodd" clip-rule="evenodd" fill="#E43221" d="M8.288,6.152c0.039-0.458,0.085-0.491,0.481-0.325
		c0.104,0.044,0.203,0.101,0.304,0.151C9.015,6.037,8.957,6.096,8.899,6.154C8.695,6.17,8.49,6.486,8.288,6.152z"/>
	<path fill-rule="evenodd" clip-rule="evenodd" fill="#F6A9A7" d="M7.157,4.761c0.021,0.178-0.105,0.295-0.18,0.434
		c-0.34-0.014-0.396-0.266-0.438-0.527C6.563,4.67,6.589,4.672,6.614,4.675c0.06-0.007,0.117-0.067,0.181-0.013
		C6.889,4.791,7.02,4.79,7.157,4.761z"/>
	<path fill-rule="evenodd" clip-rule="evenodd" fill="#FCF1F8" d="M6.795,4.662C6.737,4.687,6.681,4.753,6.614,4.675
		c0.044-0.102-0.066-0.307,0.124-0.296C6.869,4.386,6.848,4.549,6.795,4.662z"/>
	<path fill-rule="evenodd" clip-rule="evenodd" fill="#E23A23" d="M8.014,6.162C7.585,6.173,7.711,5.718,7.497,5.548
		C7.933,5.531,8.009,5.816,8.014,6.162z"/>
</g>
</svg>
