<?xml version="1.0" encoding="utf-8"?>
<!-- Generator: Adobe Illustrator 16.0.0, SVG Export Plug-In . SVG Version: 6.00 Build 0)  -->
<!DOCTYPE svg PUBLIC "-//W3C//DTD SVG 1.1//EN" "http://www.w3.org/Graphics/SVG/1.1/DTD/svg11.dtd">
<svg version="1.1" id="Ebene_1" xmlns="http://www.w3.org/2000/svg" xmlns:xlink="http://www.w3.org/1999/xlink" x="0px" y="0px"
	 width="128px" height="128px" viewBox="-56 -56 128 128" enable-background="new -56 -56 128 128" xml:space="preserve">
<path fill="#005BD7" d="M72.369,40.166c0,17.765-14.402,32.167-32.166,32.167H-24.13c-17.764,0-32.167-14.402-32.167-32.167v-64.333
	c0-17.764,14.403-32.167,32.167-32.167h64.333c17.764,0,32.166,14.403,32.166,32.167V40.166z"/>
<g>
	<path fill="#7F0606" d="M39.566,51.507c-0.22,0.267-0.471,0.533-0.691,0.816c-2.811,0.424-5.63,0.84-8.449,1.265
		c-4.115-5.176-9.314-6.416-15.471-4.319c-0.785,0.267-1.649,0.235-2.403-0.048c-2.513-0.941-4.814-0.393-7.033,0.856
		c-3.875,2.191-8.092,1.83-12.282,1.681c-2.403-0.723-4.582-1.681-5.081-4.531c1.457-1.201,3.216-0.73,4.728-0.511
		c2.871,0.393,4.688-0.77,6.122-3.031c0.499-0.793,1.084-1.531,1.681-2.246c1.633-1.963,3.652-2.536,5.949-1.382
		c4.449,2.262,8.902,3.927,14.116,3.086c2.349-0.385,4.72,1.115,7.226,1.076c1.248-0.016,2.058,1.178,2.419,2.309
		c1.075,3.322,3.612,3.966,6.644,3.896C38.012,50.485,38.931,50.674,39.566,51.507z"/>
	<path fill="#6D0806" d="M-6.873,50.831c5.049,0.251,9.985-0.047,14.411-2.945c0.546-0.353,1.48-0.737,1.952-0.51
		c4.523,2.089,8.968-0.361,13.444-0.11c2.897,0.173,6.754,3.299,7.492,6.322c-2.058,0.667-4.021,1.648-6.268,1.5
		c-0.879,0.329-1.868,0.722-2.34-0.448c-0.4-0.966,0.455-1.429,1.178-1.806c1.916-1.006,0.841-1.783-0.228-2.411
		c-1.421-0.849-2.921-0.361-4.39-0.047c-1.461,0.313-2.089,0.644-1.924,2.654c0.148,1.924-2.16,0.723-3.385,0.887
		c-0.935-0.133-1.85-0.377-2.808-0.148c-1.006,0.204-2.011,0.251-3.016,0.393c-1.759,0.644-3.593,0.424-5.403,0.486
		c-1.111,0.079-2.155-0.22-3.184-0.581c-1.779-0.267-3.306-1.154-4.889-1.893C-6.681,51.836-7.011,51.443-6.873,50.831z"/>
	<path fill="#621207" d="M12.913,52.896c1.005,0.134,1.994,0.267,3.016,0.4c0.157-1.438-1.398-1.209-1.696-2.199
		c0.196-0.172,0.408-0.439,0.675-0.573c4.854-2.426,7.681-2.442,9.896-0.07c0.612,0.66,1.523,1.241,1.178,2.34
		c-0.314,1.021-1.319,0.707-2.081,0.841c-0.573,0.118-1.609-0.181-1.28,0.942c0.095,0.29,1.006,0.338,1.539,0.511
		c-0.722,0.439-1.46,0.871-2.183,1.319c-1.154,0-2.309,0-3.463,0c-1.391-0.723-3.032-0.188-4.422-0.903
		C13.259,54.836,12.332,54.208,12.913,52.896z"/>
	<path fill="#AC0406" d="M50.797,36.036c-1.006,0.989-1.696,2.175-2.152,3.518c-2.575,2.623-2.937,6.644-5.756,9.142
		c-3.275,0.165-2.883-2.388-2.866-4.249c0.031-2.678,1.209-5.19,1.68-7.829c0.11-0.565,0.33-1.123,0.487-1.681
		c1.854-7.139,0.354-9.565-6.848-11.042c-1.139-0.235-2.325-0.329-3.149-1.319c-1.107-3.533,0.424-7.052,0.134-10.586
		c0.51-1.504,1.633-2.194,2.984-1.382c7.303,4.421,13.774,9.659,16.507,18.227c0.299,1.453,0.856,2.852,0.676,4.375
		C52.352,34.402,51.864,35.392,50.797,36.036z"/>
	<path fill="#990405" d="M32.546,22.686c2.812-0.079,5.693-0.126,8.104,1.523c3.997,2.717,4.578,5.78,2.686,11.34
		c-0.88,2.623-1.751,5.293-2.23,8.019c-0.313,1.845-0.675,4.075,1.807,5.112c-0.637,1.516-1.9,2.262-3.338,2.827
		c-0.935,0-1.861-0.008-2.804-0.008c-0.942-0.684-2.042-1.076-3.109-1.532c-3.597-1.508-3.793-2.434-1.162-5.434
		c3.518-3.66,4.209-8.356,4.774-13.084c0.173-1.57-0.746-2.065-2.184-1.728c-0.902,0.22-1.609,0.896-2.513,1.146
		c-0.534,0.11-1.028,0.031-1.477-0.282c-0.871-1.76,0.087-3.408,0.283-5.097c0.235-0.841,0.196-1.752,0.762-2.481
		C32.271,22.905,32.404,22.787,32.546,22.686z"/>
	<path fill="#F46943" d="M26.954-27.053c0.691-0.106,1.398-0.22,2.089-0.322l-0.016,0.248c-0.125,1.319,0.487,1.755,1.728,1.433
		c1.288,1.535,4.092,0.997,4.712,3.447c0.04,0.856-3.078-0.07-1.083,2.062c0.597,0.644-0.079,2.002-0.872,2.796
		c-0.824,0.35-1.265-0.031-1.516-0.777c-0.385,1.728,1.413,4.229-1.759,5.002c-1.603-2.541-1.226-5.517-1.712-8.431
		c-2.137,0.114-4.728,2.454-6.047-1.139c0.95-1.08-0.942-1.457-0.621-2.399C23.122-26.907,25.666-25.301,26.954-27.053z"/>
	<path fill="#F29868" d="M18.473-25.878c1.414-0.573,2.827-1.143,4.241-1.712c1.413,0.177,2.827,0.353,4.225,0.538
		c0.526,0.915,0.801,1.783-0.715,1.889c-1.358,0.098-2.732,0.098-4.099,0.138C20.625-24.076,19.242-23.684,18.473-25.878z"/>
	<path fill="#93BC78" d="M-6.096-48.452c0.667,0.055,1.343,0.114,2.019,0.168c3.451,1.811,7.778,1.704,10.586,4.896
		c-0.675,2.156-2.223,0.727-3.396,0.836c-6.448-2.611-13.123-4.182-20.136-4.029c-1.166,0.024-2.372,0.13-3.271-0.86
		c-0.797-0.77-3.169,1.143-2.792-1.641c2.604-0.169,5.195,0.491,7.802,0.067C-12.197-49.167-9.206-47.883-6.096-48.452z"/>
	<path fill="#7FAC43" d="M3.74-43.442c0.935-0.283,1.818,1.158,2.769,0.063c0.506,0.204,1.005,0.413,1.504,0.613
		c2.211,0.153,3.486,1.052,2.796,3.522c0.22,0.491,0.443,0.974,0.659,1.457c-0.208,1.397,0.299,3.192-1.881,3.545
		c-0.562,0.055-1.095-0.047-1.582-0.322c-1.54-1.457-1.626-3.73-3.008-5.277C4.161-40.894,2.967-41.832,3.74-43.442z"/>
	<path fill="#B3D18C" d="M-15.284-49.006c-2.607,1.021-5.214,1.197-7.802-0.075c0.016-0.216,0.079-0.417,0.2-0.601
		c1.826,0,3.652-0.008,5.478-0.016C-16.847-49.014-16.034-49.112-15.284-49.006z"/>
	<path fill="#4E5B08" d="M3.74-43.442c0.546,1.111,1.045,2.242,2.148,2.953c0.491,0.907,0.114,1.421-0.781,1.688
		c-5.305-2.639-10.928-4.264-16.759-5.277c-1.268-0.216-2.493-0.483-3.77-0.275c-1.358,0.098-2.693-0.157-4.056-0.165
		c-0.816-0.066-1.566-0.298-2.104-0.966c-1.044-0.33-1.881-0.691-0.2-1.402c0.491-0.2,0.997-0.369,1.488-0.554
		C-11.974-48.001-3.873-47.157,3.74-43.442z"/>
	<path fill="#8C0307" d="M31.164,30.429c0.471,0,0.91-0.008,1.382-0.008c3.188,2.002,4.358,5.693,2.812,9.636
		c-0.676,1.712-1.241,3.479-2.104,5.12c-2.71,1.885-2.341,3.188,0.785,3.896c1.366,0.313,2.262,1.123,2.732,2.427
		c-3.55-0.024-6.393-1.107-7.444-4.94c-0.173-0.644-0.645-1.728-1.226-1.508c-3.188,1.163-5.89-1.664-9.156-0.754
		c-4.469,1.249-8.474-0.958-12.204-3.047c-2.709-1.508-4.229-0.942-5.725,1.492c-1.013,1.681-2.101,3.464-3.589,4.665
		c-2.003,1.649-4.512-0.228-6.801,0.282c-0.726,0.165-1.578-0.251-2.372-0.408c-1.209,0.252-1.578-0.432-1.649-1.461
		C-9.559,38.926-5.773,32.015-0.28,26.22c2.541-2.687,4.06-2.852,6.644-0.157c2.316,2.419,4.205,4.994,4.15,8.575
		c-0.02,1.453,0.738,2.67,1.739,3.738c2.073,2.215,4.383,2.592,5.254-1.021c0.825-3.408,3.903-3.802,6.212-1.068
		c0.691,0.816,1.107,1.798,1.587,2.732c0.463,0.888,0.581,2.31,1.829,2.325c1.335,0.031,1.814-1.257,2.238-2.356
		c0.063-0.313,0.173-0.628,0.283-0.927c0.597-1.57,1.602-3.063,1.193-4.885C30.755,32.251,30.284,31.261,31.164,30.429z"/>
	<path fill="#BC0407" d="M50.844,29.039c-2.058-6.495-6.604-10.972-11.969-14.757c-1.028-0.738-2.198-1.193-3.031-2.27
		c-0.581-0.75-1.476-1.673-2.614-0.554c-1.893-0.306-1.713-1.877-1.76-3.153c-0.07-1.939,0.346-3.836,0.966-5.67
		c2.607-3.754,3.268-4.021,6.612-2.702c1.068,1.261,0.786,2.808,0.841,4.261c0.047,1.158-0.071,2.356,1.453,2.709
		c1.413,0.413,2.567,1.265,3.188,2.537c2.718,5.603,5.875,10.982,8.293,16.746C52.54,27.39,52.649,28.874,50.844,29.039z"/>
	<path fill="#CE2A14" d="M50.844,29.039c0.471-0.951,0.927-1.894,1.397-2.836c0.103-2.937-2.183-4.751-3.361-7.067
		c-2.183-4.272-3.228-8.717-2.654-13.507c0.017-1.712-0.329-3.459,0.456-5.108c0.558-1.021,1.531-1.52,2.544-1.959
		c1.539,0.016,1.76,1.229,1.477,2.195c-1.107,3.746,0.974,6.432,2.812,9.463c0.031,0.259,0.33-0.515-0.063-0.264
		c-0.565-1.071-0.817-2.002,0.911-2.038c0,5.659,0,11.329,0,16.983c-0.896,2.827-1.822,5.654-2.718,8.465
		C51.394,31.937,51.126,30.483,50.844,29.039z"/>
	<path fill="#D62912" d="M33.3,2.299c0.33,3.055-1.916,6.094-0.07,9.16c0.313,3.766-0.433,7.488-0.684,11.227l-0.039-0.047
		c-1.587,0.251-2.176-0.864-2.246-2.042c-0.307-5.058-2.615-9.966-1.28-15.168c0.393-1.217,0.361-2.552,0.989-3.699
		c2.568-1.861,1.249-4.586,1.531-6.958c0.079-3.354,0.04-6.723,2.396-9.499c0.439-0.11,0.816,0,1.131,0.338
		C37.022-8.559,34.996-3.155,33.3,2.299z"/>
	<path fill="#B30407" d="M31.164,30.429c0.22,0.927,0.447,1.854,0.667,2.796c-0.259,0.274-0.581,0.486-0.942,0.604
		c-3.369-0.095-3.439-2.93-4.28-5.128c-0.533-5.419-4.39-8.435-9.439-6.927c-5.025,1.508-9.325,1.461-12.679-3.282
		c-0.781-1.107-2.375-1.406-3.651-1.948c-1.543-0.69-2.399-2.136-3.491-3.298c-3.023-3.235-4.096-3.381-7.704-1.021
		c-0.675,0.448-1.312,0.958-2.01,1.367c-2.902,1.287-4.889,3.855-7.673,5.355c-1.457,0.785-1.037,2.733-1.657,4.084
		c-0.456,0.997-1.135,1.916-2.281,1.869c-1.28-0.048-1.708-1.021-1.563-2.23c0.981-3.77,1.916-7.578,5.525-9.88
		c2.67-2.258,5.407-4.421,8.485-6.133c5.132-2.854,8.78-2.823,13.004,1.312c2.902,2.839,6.593,2.662,9.848,4.021
		c0.703,0.291,1.276-0.42,1.873-0.773c2.372-1.413,5.058-1.79,7.712-2.019c3.472-0.29,5.223,2.093,6.612,4.787
		c1.916,3.722,2.977,7.837,5.026,11.505C32.074,27.138,31.635,28.787,31.164,30.429z"/>
	<path fill="#C40C05" d="M32.546,25.489c-3.031-2.364-3.597-6.157-5.215-9.307c-1.304-2.536-2.23-6.035-5.206-5.89
		c-3.645,0.177-8.223-0.428-10.488,4.791c-0.852-2.875-2.717-3.032-4.849-3c-3.715,0.047-5.556-3.311-8.305-4.999
		c-2.847-1.747-5.372-1.708-8.171-0.283c-3.569,1.81-6.569,4.421-9.789,6.726c-1.315-3.243-0.699-4.747,2.898-7.146
		c0.298-0.169,0.621-0.279,0.958-0.338c1.704,0.13,3.487,0.467,4.469-1.543c0.836-1.198,1.947-2.171,2.862-3.306
		c2.124-2.686,2.678-2.741,5.226-0.507c1.225,1.08,2.392,2.223,3.652,3.267c3.974,3.314,8.379,1.873,12.624,1.19
		c1.807-0.298,3.236-1.728,3.605-3.86c0.377-2.14,1.728-2.91,3.51-1.527c2.607,2.034,5.191,3.93,8.701,4.06
		c0.534,0.016,1.006,0.562,0.723,1.303c0.495,0.853,0.4,1.688,0.204,2.663c-0.519,2.772,1.414,13.409,2.553,14.854
		C32.522,23.581,32.53,24.539,32.546,25.489z"/>
	<path fill="#970306" d="M33.253,45.177c0.031-1.265-0.157-2.561,0.486-3.746c2.137-3.942,1.202-7.555-1.186-11.01
		c0.903-1.861,2.474-2.324,4.374-2.065c1.037,0.142,1.979,0.691,1.791,1.751C37.713,35.415,37.399,40.999,33.253,45.177z"/>
	<path fill="#D7280A" d="M54.362,7.917c-1.037,0.695-0.519,1.948-1.061,3.251c-2.403-3.33-5.474-6.016-3.447-10.488
		c0.298-0.691,0.204-1.358-0.377-1.912c-2.168-2.27-0.786-4.61-0.142-6.942c1.146-1.681,2.215-1.43,3.063,0.212
		c0.738,1.437,0.754,3.094,1.1,4.657c0.196,0.699,0.408,1.398,0.612,2.097C54.472,1.839,54.637,4.871,54.362,7.917z"/>
	<path fill="#E3601F" d="M44.467-20.228c4.861,3.557,6.809,8.984,9.117,14.187c-0.039,0.919-0.055,1.834-0.086,2.752
		c-0.66-1.531-1.351-3.051-1.979-4.594c-0.345-0.844-0.77-1.013-1.444-0.354c-1.398,0.177-1.555-1.1-2.184-1.826
		c-1.1-3.192-3.424-5.871-3.958-9.302C44.043-19.702,44.208-19.993,44.467-20.228z"/>
	<path fill="#F1956F" d="M36.048-26.522c0.903,0.514,1.822,1.037,2.718,1.551c0.361,1.213,0.063,2.026-1.335,2.164
		c-2.152-1.319-4.531-1.943-7.005-2.309c-1.791,0.251-1.696-0.793-1.398-2.01C31.415-27.48,33.739-27.198,36.048-26.522z"/>
	<path fill="#ACC97F" d="M7.946-34.925c0.467-0.008,0.934-0.023,1.402-0.039c0.346,0.337,0.608,0.722,0.707,1.197
		c0.169,0.432,0.023,1.159,0.883,0.982c0.86-0.597,1.725-1.547,2.619-0.075c0.063,0.483,0.142,0.958,0.204,1.433
		c0.173,0.699,0.338,1.398,0.503,2.089c0.346,0.797-0.267,1.174-0.77,1.052c-2.219-0.569-3.624,0.727-5.089,1.995
		c-1.543-0.102-2.25-1.131-2.686-2.45C5.637-31.097,5.405-33.512,7.946-34.925z"/>
	<path fill="#A8C47E" d="M8.621-26.475c0.322-2.91,1.512-4.245,4.465-2.501c0.439,0.267,0.863,0.031,1.178-0.361
		c0.455,0.699,0.911,1.41,1.366,2.117c0.103,0.439,0.188,0.883,0.283,1.335c-1.752,2.501-3.974,2.902-6.608,1.496
		C8.72-24.963,8.323-25.607,8.621-26.475z"/>
	<path fill="#F01408" d="M34.682-14.574c-0.251,0-0.51,0.008-0.754,0.016c-1.319-0.691-1.586-1.622-0.651-2.831
		c0.133-1.005,0.667-2.211,0.298-2.98c-1.201-2.501,0.558-1.924,1.799-1.987c0.519-0.546,1.139-0.62,1.814-0.354
		c0.62,0.208,1.099,0.625,1.547,1.068c1.351,0.974,3.251,1.044,4.209,2.646c0.377,0.522,0.738,1.068,1.131,1.598
		c1.814,2.501,1.979,5.532,2.686,8.391c0.079,1.331-0.149,2.556-1.178,3.518c-1.131,0.613-1.642-0.2-2.184-0.938
		c-0.172-0.306-0.298-0.628-0.4-0.966c-0.125-0.483-0.165-0.974-0.181-1.473c-0.204-1.39-0.016-3.063-2.206-3.008
		c-1.154,0.146-1.995-0.385-2.639-1.276C37.132-14.283,36.048-14.743,34.682-14.574z"/>
	<path fill="#F23815" d="M22.635-22.945c2.458,2.678,4.154,1.417,5.858-1.665c1.838,3.879,1.587,7.649,1.885,11.316
		c0.017,0.998-0.589,1.536-1.413,1.904c-1.916,0.13-3.471,0.844-4.523,2.541c-0.424,0.684-0.754,1.842-2.019,1.072
		c-2.002-5.709,0.039-11.631,4.029-12.875c-1.909-0.09-3.589,2.171-6.063,1.826C19.635-21.005,20.13-22.518,22.635-22.945z"/>
	<path fill="#F69495" d="M28.949-11.845c0.486-0.483,0.95-0.966,1.429-1.449c1.964-2.379-0.408-5.262,0.707-7.841
		c1.9,0.742,0.974,2.847,2.191,3.738c0.22,0.95,0.432,1.893,0.651,2.831c-0.267,3.298-1.648,6.436-1.397,9.805
		c-0.534,0.483-0.126,1.582-1.131,1.759C27.63-5.174,26.562-9.018,28.949-11.845z"/>
	<path fill="#F68054" d="M22.635-22.945c-1.005,1.225-2.324,2.301-2.041,4.143c0.196,0.314,0.181,0.604-0.087,0.868
		c-0.338,0.075-0.651,0.023-0.935-0.161c-0.173-0.161-0.282-0.377-0.463-0.522c-1.139-1.029,0.644-3.514-1.563-3.754
		c-2.198-0.259-4.437,0.208-5.917,2.258c-0.271,0.389-0.644,0.667-1.115,0.805c-2.022-1.076-1.594-3.015-1.716-4.767
		c0.074-0.381,0.251-0.695,0.522-0.966c2.415,1.398,4.433-0.236,6.577-0.844c0.855,0,1.712,0,2.567,0
		c1.006,1.237,2.442,0.601,3.668,0.86c0.942,1.158,2.701,0.071,3.785,1.206C24.944-22.518,23.656-23.259,22.635-22.945z"/>
	<path fill="#F9AFAB" d="M37.462-22.101c-0.707-0.079-1.397-0.169-2.089-0.248c-1.634-0.95-3.927-0.714-4.947-2.768
		c2.921-0.923,5.544-0.844,7.335,2.14C37.792-22.639,37.697-22.341,37.462-22.101z"/>
	<path fill="#ED7C43" d="M37.462-22.101c0.094-0.287,0.188-0.585,0.282-0.875c0.346-0.667,0.691-1.335,1.021-1.995
		c0.511,0.185,1.021,0.369,1.523,0.558c0.558,1.139,1.657,1.598,2.693,2.144c0.495,0.683,0.989,1.359,1.484,2.042
		c-0.016,0.275-0.031,0.542-0.047,0.813c-0.801,0.467-0.464,1.681-1.382,2.069c-0.221-0.483-0.456-0.966-0.676-1.441
		c-0.974-1.527-1.995-2.984-4.17-2.002C37.65-21.053,37.367-21.473,37.462-22.101z"/>
	<path fill="#A8C47E" d="M13.572-32.86c-1.617-0.958-1.304,1.174-2.183,1.366c-0.742-0.624-0.2-2.517-2.034-2.057
		c0-0.476,0-0.942,0-1.414c1.865-0.075,1.005-2.188,2.12-2.831C12.434-36.26,13.714-34.862,13.572-32.86z"/>
	<path fill="#CE2302" d="M-28.402,13.937c0.345-1.712,0.345-3.42,0.098-5.132c0.562-4.979-0.008-10.044,1.295-14.983
		c0.578-2.171,1.139-4.26,2.482-6.079c1.296,0.483,2.356,1.744,3.879,1.382c3.141-0.73,4.806,0.981,6.078,3.459
		c0.377,0.722,0.805,1.535,0.628,2.301c-0.974,4.083-1.209,8.266-1.877,12.4c-0.608,0.73-1.504,0.499-2.273,0.632
		c-5.501,0.982-7.158,2.875-7.425,8.344c-0.094,2.175,0.196,4.523-1.943,6.047c-0.974-0.157-0.974-0.157-1.343-1.696
		C-28.183,18.413-28.402,16.167-28.402,13.937z"/>
	<path fill="#DB2704" d="M-16.018-8.244c-1.382-1.865-2.67-3.4-5.556-2.277c-1.618,0.636-3.522-0.157-3.538-2.611
		c0.153-1.512,0.746-2.776,2.097-3.604c0.797-0.515,1.61,0.514,2.399-0.047c0.66-0.385,1.115-0.997,1.673-1.504
		c1.123-0.974,1.896-0.62,2.427,0.652C-16.12-14.515-14.231-11.476-16.018-8.244z"/>
	<path fill="#EC4E1B" d="M-23.007-17.46c2.698-1.374,3.918-4.551,6.86-5.631c0.926-0.231,1.747-1.323,2.823-0.353
		c2.717,3.145-1.084,3.942-2.065,5.752c-0.742,0.263-1.398,0.125-1.979-0.389c-0.915-0.617-0.762,0.75-1.359,0.734
		c-1.111-0.153-1.566,0.33-1.398,1.429c-1.739,2.431-1.939-0.514-2.897-0.828C-23.015-16.977-23.007-17.22-23.007-17.46z"/>
	<path fill="#AC0704" d="M-27.397,24.829c-0.129-0.919-0.255-1.846-0.385-2.771c1.076-0.565,1.956-0.291,2.678,0.636
		c0.106,0.691,0.145,1.547,1.037,1.578c0.942,0.016,1.574-0.824,1.594-1.586c0.078-6.644,6.247-7.021,10.017-9.848
		c0.475,0.974,0.098,1.916-0.417,2.623c-3.522,4.821-4.076,10.742-6.015,16.13c-0.797,2.23-1.873,3.11-4.084,1.869
		c-0.526-1.146-1.319,0.361-2.179-3.016c0.146-0.816-0.22-1.477-0.695-2.089C-25.98,27.005-26.616,25.89-27.397,24.829z"/>
	<path fill="#970306" d="M-13.258,45.938c-2.045-1.782-3.683-3.871-5.002-6.243c0.44-5.607,1.527-11.042,3.762-16.264
		c1.182-2.765,2.576-5.191,4.963-7.076c3.306-2.623,4.936-2.693,8.411-0.141c3.797,2.779,7.091,6.117,10.327,9.502
		c1.543,1.617,3.2,2.23,5.345,1.774c0.675-0.157,1.382-0.188,2.089-0.22c6.518-0.393,6.809-0.181,9.628,5.67
		c1.052,2.176,1.869,4.587,4.178,5.914c-0.212,0.659-0.346,1.374-0.676,1.971c-0.597,1.115-1.265,2.481-2.686,2.45
		c-1.516-0.047-1.869-1.523-2.293-2.749c-0.534-1.539-1.162-3.055-2.293-4.287c-0.802-0.849-1.822-1.021-2.891-0.777
		c-1.036,0.228-1.067,1.106-1.107,1.924c-0.078,1.696-0.313,3.471-2.104,4.067c-1.9,0.629-3.298-0.683-4.594-1.908
		c-1.213-1.139-2.588-2.474-2.34-4.123c0.683-4.413-2.435-6.816-4.673-9.675c-0.938-1.209-2.156-1.327-3.232-0.031
		c-3.114,3.723-6.859,7.107-9.094,11.293c-1.296,2.435-2.262,5.151-3.852,7.523C-11.883,45.239-12.343,45.853-13.258,45.938z"/>
	<path fill="#A60405" d="M30.426,38.848c-1.218,0.737-2.176,0.62-2.843-0.786c-0.699-1.476-1.461-2.929-2.184-4.397
		c-2.78-5.6-4.492-6.542-10.774-5.042c-2.403,0.581-3.978,0.063-5.592-1.648c-3.361-3.534-6.859-6.935-10.68-9.989
		c-3.337-2.662-7.527-2.042-9.859,2.874c-2.419,5.089-5.941,10.146-4.775,16.429c0.279,1.531-0.644,2.67-1.979,3.408
		c-0.989-1.335-1.802-2.851-3.377-3.62c-0.008-1.014-0.549-1.673-1.401-2.128c-0.201-0.197-0.255-0.361-0.161-0.511
		c0.098-0.134,0.177-0.196,0.267-0.196c2.258,0.62,2.356-0.314,3.047-2.474c1.963-6.149,3.079-12.738,7.429-17.913
		c4.885-4.771,7.111-4.685,11.332,0.471c0.66,0.785,0.942,1.916,2.034,2.333c3.369,1.971,5.646,5.175,8.607,7.609
		c1.39,1.139,2.65,1.83,4.292,0.416c6.91-5.969,11.261-1.798,13.821,4.626c0.77,1.932,0.565,4.547,3.519,4.932
		c0.628,1.759-0.456,3.274-0.707,4.916C30.441,38.376,30.426,38.627,30.426,38.848z"/>
	<path fill="#990405" d="M30.441,38.156c-0.204-1.704,0.282-3.307,0.698-4.916c0.229,0,0.464-0.016,0.691-0.016
		C32.593,35.211,31.188,36.586,30.441,38.156z"/>
	<path fill="#D00705" d="M34.682-14.574c1.366-2.78,2.733-1.19,3.77,0.177c0.676,0.911,0.927,2.124,2.419,1.955
		c0.361,0.2,0.628,0.499,0.832,0.876c0.856,4.358,0.503,8.411-2.851,11.756c-2.521-1.06-3.91,0.844-5.552,2.109
		C32.868-3.403,35.436-8.857,34.682-14.574z"/>
	<path fill="#C81105" d="M47.294,5.836c-0.063,5.823,0.126,11.525,4.405,16.237c0.825,0.895,1.5,2.606,0.542,4.13
		c-2.929-4.743-5.371-9.737-7.759-14.768c-0.738-1.57-1.382-3.314-3.518-3.526c-1.241-1.857-2.31-3.738-0.652-5.917
		c1.422-1.39,1.469-3.393,2.254-5.073c0.188-0.275,0.455-0.467,0.762-0.597c0.338-0.055,0.66-0.023,0.974,0.09
		c1.422,1.052,1.406,2.654,1.107,4.037C44.914,2.742,45.692,4.38,47.294,5.836z"/>
	<path fill="#D11F14" d="M41.012,2.354c-2.184,1.842,0.707,3.699-0.039,5.548c-2.081-0.2-2.105-1.712-2.098-3.263
		c0.017-1.488-0.016-2.968-0.031-4.457c1.335-3.868,2.843-7.704,2.137-11.933c2.01-0.208,1.413,2.218,2.748,2.701
		c0,0.515,0,1.037,0,1.563c-0.777,1.3,0.212,2.878-0.628,4.17l0.016-0.031C42.236-1.506,40.524,0.021,41.012,2.354z"/>
	<path fill="#D7280A" d="M47.294,5.836c-2.827-0.377-4.162-1.48-2.969-4.665c0.503-1.327,0.707-3.185-0.597-4.551
		c-0.597-1.182-0.942-2.348,0.149-3.467c0.463,0.467,0.919,0.926,1.39,1.394c3.056,1.167,3.487,2.333,2.073,5.604
		C47.317,2.059,47.302,3.948,47.294,5.836z"/>
	<path fill="#EB4A34" d="M47.333,0.159c0.056-2.148-0.016-4.245-2.073-5.604c0.229-1.174,0.448-2.356,0.676-3.538
		c1.421,0.514,2.112-0.467,2.835-1.386c0.439,0.711,0.863,1.417,1.304,2.132c-0.252,2.34-1.006,4.625-0.581,7.021
		C49.297,0.064,48.409,0.241,47.333,0.159z"/>
	<path fill="#D21704" d="M29.75,5.114c-3.77-0.989-7.656-1.504-10.382-4.896c-0.958-1.209-1.445,0.008-1.594,1.053
		c-0.558,3.785-3,5.25-6.593,5.242c-0.468,0-0.998-0.137-1.387,0.032C3.807,9.119,0.01,5.491-3.512,1.639
		c-1.979-2.148-3.075-2.019-4.044,0.628C-8.699,1.384-8.73-0.179-9.688-1.2c-1.81-1.92-1.567-3.651,0.644-5.104
		C-5.361-8.374-1.992-7.471,1.33-3.54c0.337,0.377,0.667,0.766,1.021,1.127c1.127,1.174,2.533,2.018,3.624,3.255
		c1.104,1.256,2.662,1.916,4.28,2.203c3.482,0.621,5.54-1.535,4.873-4.959c-0.142-0.683-0.322-1.359-0.346-2.065
		c0.942-2.914,2.025-3.459,3.879-1.425c2.137,2.348,5.215,3.467,7.084,6.086c0.927,1.304,2.058,1.304,3.094,0
		c0.487-0.247,0.974-0.255,1.477-0.023c0.188,0.169,0.275,0.361,0.259,0.573c-0.016,0.216-0.055,0.33-0.102,0.33
		C30.284,2.75,30.834,4.101,29.75,5.114z"/>
	<path fill="#E04B3A" d="M30.473,1.549c-0.016-0.216-0.031-0.432-0.063-0.648c-0.66-0.742-0.856-1.571-0.534-2.517
		c0.321-0.95,1.39-1.056,1.955-1.731c0.228-0.475,0.479-0.946,0.699-1.414c0,1.688-0.008,3.377,0.008,5.073
		C32.554,1.922,31.902,2.389,30.473,1.549z"/>
	<path fill="#C21301" d="M-25.104,22.693c-0.892-0.212-1.787-0.432-2.678-0.636c-0.047-0.26-0.098-0.503-0.145-0.771
		c0.361-2.387,0.781-4.743,0.75-7.186c-0.075-5.788,4.943-9.333,10.574-7.629c0.231-0.192,0.448-0.177,0.644,0.055
		c-2.148,1.842-3.805,3.942-3.526,7.001c-2.533,2.152-4.445,4.603-4.366,8.176C-23.836,22.348-24.527,22.56-25.104,22.693z"/>
	<path fill="#AC0704" d="M27.63,28.309c-0.88-1.226-1.649-2.537-2.639-3.66c-3.612-4.067-6.447-4.351-10.193-0.471
		c-2.199,2.285-3.684,2.301-5.701,0.063c-2.655-2.937-5.455-5.717-8.188-8.583c2.18,0.558,3.919,1.563,5.431,3.416
		c1.688,2.073,4.001,3.518,7.052,2.419c1.296-0.479,2.718-0.55,4.068-0.88C22.588,19.395,27.158,22.858,27.63,28.309z"/>
	<path fill="#DD452F" d="M-15.959,6.527c-0.22-0.023-0.428-0.039-0.644-0.055c-0.75-3.766-0.935-7.488,0.938-11.026
		c0.699-1.327-0.169-2.47-0.354-3.691c-0.24-3.306-1.488-6.475-1.351-9.836c0.636,0,1.272,0,1.904,0
		c0.604-0.609,1.194-0.456,1.771,0.043c0.707,1.598,1.037,3.738,3.691,2.678c0.868-0.129,1.72-0.106,2.548,0.2
		C-4.462-12.41-4.631-9.701-7.917-7.4c-0.275-0.122-0.459-0.369-0.711-0.538c0.244,0.192,0.428,0.44,0.684,0.66
		c0.137,0.652,0.129,1.26-0.224,1.833c-2.156,1.029-3.322,2.065-0.322,3.632c1.755,0.919,0.722,2.694,0.935,4.087
		c-1.135,0.715-2.093,1.606-2.8,2.765c-1.433,1.209-3.071,1.696-4.936,1.425C-15.52,6.473-15.735,6.496-15.959,6.527z"/>
	<path fill="#C21301" d="M-15.292,6.465c1.508-0.958,3.231-1.15,4.936-1.433C-11.538,7.117-13.042,8.071-15.292,6.465z"/>
	<path fill="#F89B99" d="M48.771-10.369c-0.016,0.228-0.031,0.452-0.047,0.667c-0.071,1.088,0.486,2.639-0.841,2.992
		c-1.555,0.412-0.966-1.759-1.939-2.273c-1.226-2.694-1.178-5.831-2.89-8.364c0.675-0.55-0.958-2.639,1.382-2.069
		C45.833-16.384,47.766-13.6,48.771-10.369z"/>
	<path fill="#F07B45" d="M-1.914-28.034c2.053-1.873,4.543-1.104,6.903-1.166c0.393,0.192,0.785,0.377,1.182,0.569
		c0.817,0.718,1.63,1.441,2.45,2.164c0.235,0.475,0.468,0.958,0.699,1.433c-0.008,0.231-0.016,0.467-0.031,0.699
		c-1.32,0.444-2.451-1.103-3.813-0.337c-2.886,0.408-5.395-1.736-8.297-1.229C-3.327-26.966-2.499-27.449-1.914-28.034z"/>
	<path fill="#94BF4E" d="M9.355-33.551c2.144-0.766,2.266,0.475,2.034,2.057C9.894-31.372,8.59-31.442,9.355-33.551z"/>
	<path fill="#F23F0F" d="M38.2-20.79c0.377-0.797,0.754-1.583,1.225-2.58c1.414,1.343,2.568,2.686,2.938,4.583
		C41.451-20.468,39.127-19.18,38.2-20.79z"/>
	<path fill="#EE4D3D" d="M43.729-9.042c-2.371,0.565-1.712-1.92-2.748-2.701c-0.04-0.232-0.079-0.467-0.118-0.699
		c0.196-0.691,0.463-1.441,1.28-0.577C43.194-11.927,43.854-10.624,43.729-9.042z"/>
	<path fill="#DB463F" d="M43.87-6.838c-0.063,1.158-0.11,2.309-0.157,3.467c-0.204,0.024-0.416,0.047-0.612,0.067
		c-0.691-1.531-1.366-3.051,0.628-4.182C43.76-7.263,43.808-7.055,43.87-6.838z"/>
	<path fill="#E9514B" d="M31.831-3.34c-0.031,0.927-0.542,1.37-1.437,1.449c-3.252,0.836-6.872-1.551-8.011-5.285
		c0.11-0.133,0.22-0.263,0.314-0.4c1.304-2.548,2.246-5.654,6.251-4.268C27.237-8.107,29.86-5.833,31.831-3.34z"/>
	<path fill="#F22B0C" d="M20.491-18.19c0.016-0.204,0.047-0.412,0.103-0.604c1.531-3,4.476-1.787,6.832-2.258
		c0.581-0.114,0.824,0.354,0.816,0.86c-0.008,0.483-0.188,1.135-0.73,0.931c-3.824-1.414-3.329,1.987-4.139,3.758
		c-1.154,2.525-0.55,5.273-0.675,7.928l-0.016,0.023c-0.511,0.412-0.079,1.398-0.975,1.579c-0.754-0.169-1.067-0.758-1.303-1.402
		c-0.188-1.445-1.524-2.808-0.691-4.308c0.738-1.343-0.031-1.555-0.974-1.893c-1.162-0.416-2.514-0.554-3.243-1.802
		C16.242-17.951,19.353-16.325,20.491-18.19z"/>
	<path fill="#F7BBC1" d="M10.753-19.525c0.586-2.693,6.589-5.364,8.851-3.942c0.872,0.538,1.068,1.272,0.361,2.011
		c-1.036,1.103-0.313,2.187-0.125,3.291c0.393,1.327-0.534,1.72-1.492,1.767c-1.398,0.067-2.733,0.582-4.068,0.758
		C11.621-15.289,10.632-17.032,10.753-19.525z"/>
	<path fill="#F74D12" d="M10.753-19.525c2.388,3.801,5.639,4.284,9.087,1.359c0.22,0.031,0.439,0.023,0.651-0.024
		c-0.086,3.538-3.573,1.335-4.846,2.878c-0.974,1.535-2.238,1.488-3.659,0.714c-1.186-0.958-2.176-2.057-2.835-3.455
		c-0.439-0.927-0.33,0.514-0.683,0.185c-0.314,0.023-0.585-0.075-0.829-0.267c-0.962-1.527-0.809-3.436-1.712-4.971
		c-0.255-0.616-0.452-1.245-0.185-1.912c1.005-1.425,1.005-1.425,3.546,0.691C10.69-23,9.297-20.837,10.753-19.525z"/>
	<path fill="#F76D48" d="M-20.125-15.917c-1.849-0.345-1.28-1.245-0.42-2.081c0.95-0.926,1.618-0.707,1.818,0.652
		C-19.195-16.871-19.662-16.392-20.125-15.917z"/>
	<path fill="#E95E1F" d="M-1.914-28.034c-0.193,0.781-0.385,1.551-0.585,2.333c1.92,1.633-0.291,2.309-0.766,3.393
		c-0.683,0.883-0.416,2.203-1.374,2.968c-0.852,0.346-1.626,0.071-2.372-0.337c-0.597-0.397-1.245-0.927-1.256-1.594
		c-0.016-2.596-1.429-2.419-3.177-1.751c-0.777,0.24-1.566,0.491-2.364,0.071c-0.73-0.805-1.566,0.122-2.34-0.138
		c0.691-1.221,2.238-1.068,3.137-1.951c2.745-0.644,5.693-0.067,8.332-1.394C-3.763-26.966-2.836-27.504-1.914-28.034z"/>
	<path fill="#F7A5A3" d="M-13.808-22.953c0.703-0.33,1.41-0.652,2.109-0.982c3.828-0.255,3.828-0.255,2.815,2.333
		c-1.963,0.185-2.164,1.457-1.842,3.031c-0.031,0.338-0.161,0.644-0.381,0.911c-0.868,0.667-1.751,1.135-2.772,0.291
		c-0.314-0.727-1.037-0.499-1.586-0.703c0.283-1.013-0.125-2.517,1.296-2.788C-11.891-21.312-14.4-22.356-13.808-22.953z"/>
	<path fill="#DB463F" d="M41.012,2.354c-1.995-0.683-1.681-1.967-0.676-3.185c0.801-0.946,1.846-1.68,2.78-2.517
		C42.692-1.345,43.431,1.101,41.012,2.354z"/>
	<path fill="#D62614" d="M15.661-4.031c0.188,0.668,0.581,1.351,0.534,2.011c-0.102,1.48,1.916,3.185-0.188,4.397
		c-2.058,1.202-4.067,2.713-6.813,1.61c-3.137-1.245-5.23-3.722-7.594-5.894C2.197-2.665,3.112-2.81,3.764-2.374
		C6.878-0.289,6.98-2.472,7.133-4.647c0.098-0.314,0.244-0.604,0.42-0.872c0.667-0.73,1.488-1.213,2.395-1.575
		c1.642,0.377,3.295-0.428,4.943,0.008C15.63-6.194,14.609-4.844,15.661-4.031z"/>
	<path fill="#E01E02" d="M-8.224-7.545c2.434-2.179,2.626-4.543,0.585-7.099c-0.499-0.636-0.53-1.296-0.122-1.987
		c1.516-0.821,2.43,0.145,3.204,1.189c0.691,0.935,1.221,1.987,2.313,2.549c2.76,1.884,3.475,4.755,3.805,7.825
		C1.659-4.538,1.659-4,1.522-3.466C1.4-3.12,1.192-2.841,0.886-2.622c-1.351-2.415-3.789-3.016-6.153-3.86
		c-1.445-0.514-2.112,0.208-2.902,1.037C-8.185-6.144-8.2-6.846-8.224-7.545L-8.224-7.545z"/>
	<path fill="#D61806" d="M15.661-4.031c-1.429-0.636-1.382-1.641-0.69-2.807c0.142-1.037,0.762-1.638,1.712-1.952
		c1.712-0.208,3.282,0.008,4.602,1.237c0.235,0.483,0.472,0.958,0.707,1.441c2.788,1.896,5.277,4.092,7.036,7.021
		c-0.895,2.772-2.324,3.279-3.816,0.938c-1.963-3.102-5.654-4.044-7.728-7.037C16.227-6.996,15.756-5.299,15.661-4.031z"/>
	<path fill="#E23A23" d="M0.886-2.622c0.032-0.267,0.063-0.526,0.098-0.789c2.179-1.052,4.343-2.156,6.891-1.398
		c0.016,0.569,0.11,1.146,0.04,1.712c-0.146,1.19,0.66,2.78-0.605,3.483c-1.189,0.66-1.92-0.82-2.795-1.464
		c-0.86-0.636-1.842-0.903-2.914-0.829C1.369-2.15,1.129-2.39,0.886-2.622z"/>
	<path fill="#D82B1C" d="M29.027,0.901c-3.141-1.547-4.774-4.61-7.036-7.021c0.228-0.475,0.463-0.958,0.691-1.433
		c1.751,3.008,4.114,5.179,7.712,5.654c0,0.935,0,1.865,0.016,2.8C29.954,0.909,29.491,0.901,29.027,0.901z"/>
	<path fill="#F26657" d="M-7.47-16.647c-0.055,0.667-0.11,1.343-0.169,2.01c-0.931,0.039-1.85,0.071-2.78,0.114
		c-2.415-0.805,0.153-2.537-0.675-3.636c-0.043-0.244-0.09-0.483-0.129-0.723c0.023-1.225,0.432-2.187,1.696-2.607
		c2.47-3.659-1.343-1.712-2.171-2.446c1.625-1.005,3.322-0.279,5.678-0.569c-1.335,1.657-2.309,2.953-0.766,4.304
		C-6.457-18.917-6.319-17.652-7.47-16.647z"/>
	<path fill="#E91405" d="M-11.094-18.159c0.836,0.216,2.572-0.177,1.044,1.606c-0.491,0.573-1.28,1.166-0.361,2.018
		c-3.129,0.872-3.942,0.212-3.467-2.843C-12.956-17.637-12.021-17.904-11.094-18.159z"/>
	<path fill="#EE6960" d="M-8.224-7.545c-2.188-0.722-1.434-2.14-0.86-3.974C-7.709-10.133-8.408-8.735-8.224-7.545L-8.224-7.545z"/>
	<path fill="#F7CACC" d="M-4.019-22.984c0.475-0.935,2.556-0.958,1.527-2.717c1.457-1.288,2.717-2.776,4.559-0.169
		c0.42,0.593,2.548-0.083,3.683,0.852c0.275,0.432,0.546,0.86,0.82,1.296c0.417,0.491,0.224,1.107,0.361,1.665
		c0.911,3.601,0.884,3.715-2.533,2.772c-1.826-0.507-1.928,1.39-3.063,1.755c-1.351,0.64-2.591,0.73-3.491-0.726
		c-0.346-1.084-1.076-0.271-1.641-0.322c-0.322-0.153-0.522-0.385-0.605-0.73C-4.179-20.53-4.709-21.818-4.019-22.984z"/>
	<path fill="#EB1004" d="M21.3-7.561c-1.712,0.216-3.313-0.291-4.932-0.691c-2.136,0.314-4.771-1.657-6.306,1.39
		C9.933-5.535,8.998-5.413,7.954-5.46c-0.44-0.259-0.691-0.667-0.86-1.143C6.788-8.936,5.92-10.792,3.25-11.13
		c-0.322-0.177-0.577-0.412-0.805-0.683c-0.793-1.649,0.212-2.383,1.52-2.854c1.104-0.405,2.285-0.389,3.443-0.467
		c1.583-0.075,3.137-1.296,4.759-0.169c1.17,0.923,2.324,0.169,3.479-0.008c1.241,0.255,2.521,0.408,3.723,0.789
		c1.406,0.44,3.235,0.73,1.257,2.886C19.306-10.215,21.991-9.088,21.3-7.561z"/>
	<path fill="#F34F35" d="M7.922-13.883C6.701-13.867,5.46-13.891,4.239-13.8c-1.28,0.086-1.857,0.691-1.174,1.995
		C2.115-9.497,2.59-6.74,0.847-4.683c-0.628-2.831-1.359-5.611-3.514-7.751c-2.462-1.841-3.208-4.276-2.148-6.989
		c0.239-1.197-0.306-2.564,0.797-3.561c0,1.397,0.008,2.792,0.008,4.189c1.206,0.883,1.583,2.776,3.456,2.823
		c0.342-0.09,0.727-0.153,0.919-0.428C2.099-18.842,4-20.499,6.964-18.045c0.204,0.169,0.66-0.02,0.997-0.067
		c0.212,0.008,0.42,0.016,0.636,0.04C10.216-16.384,8.806-15.175,7.922-13.883z"/>
	<path fill="#F68078" d="M7.954-18.112c-0.224,0.919-0.66,1.665-1.614,0.781c-2.615-2.446-3.981-1.319-4.924,1.536
		c-0.271,0.836-1.005,1.221-1.896,1.237c-0.667-1.637,0.593-2.474,1.449-3.487c1.331-3.075,3.133-3.789,5.587-0.695
		c1.005-1.944-0.506-3.463,0.008-4.991C7.891-22.066,7.915-20.091,7.954-18.112z"/>
	<path fill="#F42808" d="M7.922-13.883c0.267-1.39,0.934-2.717,0.667-4.189c0.338-0.311-0.306-1.783,0.676-1.029
		c1.213,0.942,1.955,2.509,2.894,3.797C10.753-14.829,9.336-14.354,7.922-13.883z"/>
	<path fill="#F2330E" d="M-4.815-19.423c0.039,2.533,0.122,5.069,2.148,6.997c-1.198,0.047-1.917-0.451-2.227-1.657
		c-0.338-1.319-1.335-2.089-2.576-2.564c0.106-1.213-0.401-2.541,0.691-3.554C-6.127-19.945-5.475-19.687-4.815-19.423z"/>
	<path fill="#F1C2C8" d="M-9.52-21.489c-0.562,0.868-1.135,1.736-1.696,2.607c-1.304-1.386-0.75-2.721,0.416-3.644
		C-9.979-23.177-9.735-22.125-9.52-21.489z"/>
	<path fill="#F1654F" d="M0.847-4.683c0.4-2.486-1.005-5.525,2.218-7.131c0.208,0.016,0.428,0.047,0.636,0.094
		c2.266,0.903,2.619,3.42,4.158,4.939c0.031,0.44,0.063,0.884,0.102,1.327C7.915-5.244,7.883-5.028,7.875-4.809
		c-2.246,0.73-4.397,1.912-6.891,1.398C0.941-3.839,0.894-4.255,0.847-4.683z"/>
	<path fill="#E43221" d="M10.063-6.862c0.313-3.683,0.683-3.946,3.871-2.611c0.833,0.354,1.634,0.813,2.435,1.213
		c-0.455,0.475-0.927,0.95-1.397,1.414C13.337-6.717,11.684-4.176,10.063-6.862z"/>
	<path fill="#F6A9A7" d="M0.968-18.045c0.169,1.429-0.844,2.372-1.449,3.487c-2.733-0.11-3.185-2.136-3.522-4.237
		c0.192,0.016,0.401,0.031,0.601,0.055c0.483-0.055,0.942-0.538,1.457-0.103C-1.188-17.806-0.135-17.813,0.968-18.045z"/>
	<path fill="#FCF1F8" d="M-1.945-18.842c-0.467,0.201-0.915,0.73-1.457,0.103c0.357-0.821-0.53-2.466,0.997-2.38
		C-1.348-21.061-1.517-19.753-1.945-18.842z"/>
	<path fill="#E23A23" d="M7.859-6.78c-3.451,0.086-2.438-3.573-4.158-4.939C7.208-11.857,7.816-9.563,7.859-6.78z"/>
</g>
</svg>
